<svg width="107" height="102" viewBox="0 0 107 102" fill="none" xmlns="http://www.w3.org/2000/svg">
<g clip-path="url(#clip0_88_227)">
<path d="M15.0194 72.2208C19.0964 80.1978 26.5733 85.4475 35.0096 88.092C51.1007 93.1357 73.4283 90.0981 84.8545 76.6734C96.1849 65.9983 99.8495 48.8142 93.2715 34.3866C85.4095 17.1359 66.6182 8.08445 48.0197 11.2675C30.5435 14.258 16.3506 27.9974 12.1578 45.0678C9.93281 54.1253 10.7665 63.8994 15.0194 72.2208ZM83.6596 67.2231C82.8612 67.4576 82.1253 67.9889 81.5988 68.8993C81.0225 69.893 80.3791 70.8173 79.6749 71.6927C78.5422 72.7248 77.3056 73.6913 75.9704 74.5606C75.152 75.0951 74.6802 75.7924 74.4775 76.5263C71.1824 78.8367 67.3273 80.4709 63.2712 81.5351C67.7728 76.7307 71.1648 71.2861 74.2764 65.1382C76.5365 60.6802 79.1047 56.6984 84.2828 55.5624C85.822 55.2245 87.3524 54.9798 88.8165 54.6201C88.1013 59.1227 86.3836 63.4489 83.6596 67.2231ZM18.3659 51.181C19.9135 37.5062 29.6636 24.7334 42.7409 20.0364C45.372 19.0936 48.0837 18.4571 50.8211 18.1214C46.7577 25.177 45.705 35.8269 41.1766 41.3705C39.2034 43.7876 36.7452 45.7687 33.9313 47.1453C30.4613 48.8475 26.5547 49.3225 22.9893 50.7682C21.248 51.4781 19.6095 52.4196 18.1931 53.5629C18.2255 52.7692 18.2787 51.9692 18.3659 51.181ZM20.4875 63.2572C20.3676 57.0042 30.1964 56.3433 34.4423 54.7226C39.1009 52.9428 43.3296 50.0543 46.5079 46.2058C49.7285 42.2989 51.5653 37.7472 53.1022 32.9879C53.9379 30.3989 54.6352 27.7551 55.664 25.2263C56.4879 23.206 57.9763 18.8008 60.4778 18.4861C60.769 18.4479 61.0447 18.3843 61.305 18.2954C70.0144 19.6794 78.1059 24.1795 83.4299 31.684C86.7208 36.3207 88.5919 41.6046 89.083 46.9355C86.3736 48.7918 81.9007 48.4493 78.9451 49.712C74.9329 51.4254 72.0173 54.7322 69.7741 58.3713C67.3276 62.3301 65.7137 66.7218 63.1224 70.6053C60.5406 74.4707 57.2771 77.9013 53.6204 80.7768C52.7929 81.4271 52.3644 82.239 52.2237 83.0741C49.1209 83.1623 46.0806 82.9899 43.2535 82.5777C36.4297 81.5762 29.7021 79.0154 24.9231 73.9096C22.6364 71.4676 20.9865 68.5404 19.8786 65.3836C20.2743 64.8305 20.5063 64.1177 20.4875 63.2572Z" fill="black"/>
</g>
<defs>
<clipPath id="clip0_88_227">
<rect width="86.771" height="79.2257" fill="white" transform="translate(106.453 75.6191) rotate(162.645)"/>
</clipPath>
</defs>
</svg>
