<svg width="385" height="373" viewBox="0 0 385 373" fill="none" xmlns="http://www.w3.org/2000/svg">
<g clip-path="url(#clip0_88_223)">
<path d="M285.358 275.868C293.597 274.315 304.998 272.275 309.34 264.013C311.931 259.077 310.47 253.644 309.065 248.613C307.366 242.525 305.604 236.463 303.807 230.401C300.213 218.285 296.449 206.22 292.508 194.215C285.684 173.439 277.653 153.421 262.356 137.394C230.952 104.51 185.324 94.7344 141.424 95.0678C140.887 94.8101 140.251 94.6669 139.524 94.6649C127.366 94.6169 115.248 95.4343 103.214 97.1088C94.4666 98.3242 82.5906 98.9401 76.5233 106.418C69.5803 114.971 75.3362 126.549 78.7945 135.31C82.97 145.893 87.6893 156.269 93.4628 166.073C104.984 185.635 120.971 201.663 137.484 216.958C153.62 231.909 170.887 245.923 190.054 256.765C209.195 267.598 230.158 275.061 252.077 277.243C263.157 278.336 274.409 277.925 285.358 275.868ZM300.715 251.688C301.346 253.953 302.533 256.958 301.726 259.344C300.975 261.543 298.537 262.791 296.575 263.644C287.985 267.367 277.651 268.541 268.332 268.856C279.822 260.3 289.449 249.425 296.47 236.888C297.911 241.804 299.344 246.738 300.715 251.688ZM83.5538 122.847C81.8157 117.579 80.9197 112.306 86.7737 109.612C91.4499 107.453 97.1109 106.993 102.13 106.222C109.52 105.084 116.958 104.348 124.408 103.951C125.023 104.308 125.791 104.498 126.714 104.449C127.973 104.379 129.233 104.318 130.492 104.256C122.486 123.438 113.55 142.596 98.5752 157.261C92.4292 146.284 87.4455 134.628 83.5538 122.847ZM103.2 165.068C103.406 164.929 103.603 164.771 103.801 164.587C121.241 148.025 131.081 125.902 140.148 103.973C143.046 103.936 145.962 103.944 148.868 103.996C140.15 129.924 130.5 156.508 111.034 176.329C108.27 172.695 105.65 168.947 103.2 165.068ZM210.134 256.958C191.538 248.791 174.52 237.089 158.957 224.09C144.016 211.609 129.382 198.071 116.647 183.278C116.692 183.234 116.745 183.19 116.79 183.146C138.196 161.606 148.6 132.609 158.088 104.33C187.691 105.94 216.893 113.054 241.362 130.822C256.845 142.064 268.418 156.991 275.971 174.587C279.234 182.186 282.095 190.012 284.715 197.932C283.987 198.625 283.485 199.608 283.395 200.863C282.825 208.816 278.41 215.971 274.165 222.496C270.51 228.111 266.398 233.408 261.849 238.332C253.327 247.557 243.507 255.318 232.673 261.548C231.035 261.434 229.235 262.103 228.185 263.567C222.035 261.745 215.997 259.533 210.134 256.958ZM269.93 242.616C277.322 234.249 285.334 224.107 289.496 213.088C290.636 216.894 291.757 220.699 292.862 224.505C292.744 224.69 292.634 224.876 292.543 225.088C284.627 242.355 272.004 256.795 255.799 266.618C254.967 267.123 254.408 267.765 254.069 268.474C249.812 268.107 245.576 267.518 241.378 266.733C251.97 260.116 261.645 252.005 269.93 242.616Z" fill="black"/>
<path d="M226.205 208.094C229.799 204.822 233.279 201.433 236.654 197.953C239.516 200.367 242.333 202.834 245.096 205.363C249.292 209.214 255.677 203.034 251.454 199.155C248.587 196.527 245.665 193.96 242.689 191.464C244.762 189.141 246.8 186.783 248.786 184.378C252.396 180.002 246.254 173.562 242.616 177.983C240.405 180.66 238.132 183.283 235.807 185.852C231.875 182.744 227.86 179.742 223.783 176.855C224.935 175.053 226.078 173.261 227.231 171.459C230.316 166.62 222.728 162.022 219.652 166.844C218.59 168.513 217.528 170.173 216.466 171.833C211.552 168.586 206.556 165.48 201.459 162.551C202.593 160.25 203.691 157.931 204.736 155.593C207.064 150.421 199.495 145.762 197.157 150.978C196.057 153.431 194.904 155.847 193.716 158.254C188.854 155.659 183.91 153.204 178.893 150.892C180.26 147.168 181.575 143.416 182.827 139.646C184.628 134.19 176.113 131.718 174.321 137.148C173.198 140.554 172.004 143.942 170.784 147.312C168.045 146.156 165.288 145.018 162.512 143.952C157.181 141.893 154.74 150.468 160.027 152.509C162.591 153.501 165.137 154.546 167.673 155.61C166.632 158.286 165.573 160.945 164.47 163.603C162.273 168.893 170.797 171.338 172.976 166.102C173.932 163.807 174.861 161.503 175.764 159.19C180.465 161.355 185.092 163.662 189.655 166.092C187.823 169.479 185.92 172.839 183.912 176.143C180.932 181.046 188.521 185.653 191.492 180.758C193.563 177.357 195.511 173.9 197.398 170.407C202.266 173.208 207.034 176.185 211.72 179.287C209.533 182.722 207.337 186.157 205.15 189.583C202.064 194.423 209.653 199.02 212.729 194.199L219.036 184.317C222.666 186.903 226.242 189.569 229.746 192.331C226.605 195.547 223.377 198.673 220.043 201.708C215.794 205.558 221.973 211.944 226.205 208.094Z" fill="black"/>
</g>
<defs>
<clipPath id="clip0_88_223">
<rect width="181.303" height="239.612" fill="white" transform="translate(313.171 97.251) rotate(90.8563)"/>
</clipPath>
</defs>
</svg>
