<svg width="43" height="43" viewBox="0 0 43 43" fill="none" xmlns="http://www.w3.org/2000/svg">
<g clip-path="url(#clip0_88_200)">
<path fill-rule="evenodd" clip-rule="evenodd" d="M21.5 0C9.64509 0 0 9.64509 0 21.5C0 33.3549 9.64509 43 21.5 43C33.3558 43 43 33.3549 43 21.5C43 9.64509 33.3559 0 21.5 0ZM30.8226 25.7392C32.9137 27.5957 33.3484 28.2584 33.4194 28.3715C34.286 29.7457 32.4585 29.913 32.4585 29.913H28.6072C28.6072 29.913 27.6696 29.9233 26.8685 29.3923C25.5626 28.537 24.195 26.8787 23.234 27.1666C22.4273 27.4078 22.4348 28.4977 22.4348 29.4297C22.4348 29.7634 22.1478 29.913 21.5 29.913H20.296C18.1862 29.913 15.8969 29.2026 13.6132 26.816C10.3826 23.4424 7.54932 16.6466 7.54932 16.6466C7.54932 16.6466 7.38199 16.3044 7.56428 16.096C7.77086 15.8623 8.33267 15.8922 8.33267 15.8922L12.0671 15.8912C12.0671 15.8912 12.4186 15.9576 12.671 16.1352C12.8794 16.281 12.9954 16.5596 12.9954 16.5596C12.9954 16.5596 13.6226 18.6311 14.4218 19.9519C15.9829 22.5301 16.7093 22.5955 17.2393 22.3179C18.0133 21.9159 17.7609 19.1751 17.7609 19.1751C17.7609 19.1751 17.7955 17.9982 17.3916 17.4738C17.0804 17.0681 16.4849 16.8522 16.225 16.8186C16.0147 16.7914 16.3662 16.4231 16.8139 16.2128C17.4122 15.9464 18.2264 15.8782 19.6305 15.8912C20.7232 15.9015 21.0382 15.967 21.4645 16.0651C22.7536 16.3624 22.4348 17.1467 22.4348 19.9005C22.4348 20.783 22.3133 22.0234 22.9788 22.4347C23.2658 22.6123 24.2492 22.8292 25.9991 19.9875C26.8301 18.6395 27.491 16.4035 27.491 16.4035C27.491 16.4035 27.6275 16.1577 27.8397 16.0361C28.0566 15.9118 28.05 15.9146 28.3473 15.9146C28.6446 15.9146 31.6256 15.8912 32.2799 15.8912C32.9333 15.8912 33.5465 15.8838 33.6522 16.267C33.8036 16.8176 33.1698 18.704 31.5639 20.7512C28.925 24.1108 28.6324 23.7967 30.8226 25.7392L30.8226 25.7392Z" fill="black"/>
</g>
<defs>
<clipPath id="clip0_88_200">
<rect width="43" height="43" fill="white"/>
</clipPath>
</defs>
</svg>
