<svg width="546" height="309" viewBox="0 0 546 309" fill="none" xmlns="http://www.w3.org/2000/svg">
<path d="M164.896 0.912H172.192C173.76 0.912 175.056 1.256 176.08 1.944C177.12 2.632 177.64 3.712 177.64 5.184C177.64 6.032 177.408 6.792 176.944 7.464C176.496 8.12 175.888 8.584 175.12 8.856C176.176 9.096 176.984 9.592 177.544 10.344C178.12 11.096 178.408 12.04 178.408 13.176C178.408 16.392 176.248 18 171.928 18H164.896V0.912ZM167.104 2.832V8.232H171.16C171.624 8.232 172.016 8.224 172.336 8.208C172.672 8.176 173.048 8.112 173.464 8.016C173.88 7.92 174.208 7.784 174.448 7.608C174.704 7.416 174.92 7.144 175.096 6.792C175.288 6.44 175.384 6.016 175.384 5.52C175.384 5.024 175.304 4.608 175.144 4.272C174.984 3.92 174.792 3.656 174.568 3.48C174.344 3.288 174.032 3.144 173.632 3.048C173.248 2.952 172.896 2.896 172.576 2.88C172.272 2.848 171.872 2.832 171.376 2.832H167.104ZM167.104 10.008V16.104H171.616C172.176 16.104 172.632 16.096 172.984 16.08C173.336 16.048 173.728 15.976 174.16 15.864C174.608 15.752 174.96 15.592 175.216 15.384C175.472 15.16 175.688 14.848 175.864 14.448C176.04 14.032 176.128 13.536 176.128 12.96C176.128 12.48 176.064 12.064 175.936 11.712C175.824 11.36 175.624 11.08 175.336 10.872C175.064 10.664 174.8 10.496 174.544 10.368C174.304 10.24 173.952 10.152 173.488 10.104C173.024 10.056 172.664 10.032 172.408 10.032C172.152 10.016 171.76 10.008 171.232 10.008H167.104ZM190.446 7.416H186.006V18H183.966V7.416H179.526V5.616H190.446V7.416ZM192.637 7.032C193.725 5.848 195.205 5.256 197.077 5.256C198.949 5.256 200.405 5.824 201.445 6.96C202.485 8.096 203.005 9.688 203.005 11.736C203.005 13.832 202.485 15.464 201.445 16.632C200.405 17.8 198.941 18.384 197.053 18.384C195.165 18.384 193.685 17.808 192.613 16.656C191.541 15.504 191.005 13.904 191.005 11.856C191.005 9.824 191.549 8.216 192.637 7.032ZM199.861 8.28C199.173 7.4 198.229 6.96 197.029 6.96C195.829 6.96 194.877 7.4 194.173 8.28C193.469 9.16 193.117 10.336 193.117 11.808C193.117 13.328 193.461 14.52 194.149 15.384C194.853 16.232 195.829 16.656 197.077 16.656C198.277 16.656 199.213 16.224 199.885 15.36C200.573 14.496 200.917 13.304 200.917 11.784C200.917 10.312 200.565 9.144 199.861 8.28ZM207.354 5.616V7.368C208.25 5.944 209.642 5.232 211.53 5.232C213.258 5.232 214.626 5.816 215.634 6.984C216.658 8.152 217.17 9.736 217.17 11.736C217.17 13.736 216.666 15.336 215.658 16.536C214.666 17.72 213.322 18.312 211.626 18.312C209.85 18.312 208.466 17.632 207.474 16.272V22.776H205.434V5.616H207.354ZM211.218 6.936C210.034 6.936 209.098 7.368 208.41 8.232C207.738 9.08 207.402 10.256 207.402 11.76C207.402 13.264 207.746 14.448 208.434 15.312C209.138 16.16 210.09 16.584 211.29 16.584C212.458 16.584 213.378 16.152 214.05 15.288C214.722 14.424 215.058 13.248 215.058 11.76C215.058 10.256 214.714 9.08 214.026 8.232C213.354 7.368 212.418 6.936 211.218 6.936ZM221.701 18H219.661V5.616H221.701V10.536H227.893V5.616H229.933V18H227.893V12.336H221.701V18ZM235.613 18H232.997V5.616H235.037V15.72H235.085L240.653 5.616H243.269V18H241.229V7.896H241.181L235.613 18ZM257.421 18H254.829L250.317 11.904L248.373 13.8V18H246.333V5.616H248.373V11.52L254.037 5.616H256.773L251.781 10.488L257.421 18ZM261.898 15.336V16.968C261.898 17.576 261.866 18.088 261.802 18.504C261.754 18.936 261.642 19.368 261.466 19.8C261.29 20.232 261.018 20.592 260.65 20.88C260.282 21.184 259.81 21.408 259.234 21.552V20.352C260.098 20.064 260.538 19.28 260.554 18H259.234V15.336H261.898ZM282.29 16.152V18H271.202C271.25 17.056 271.394 16.232 271.634 15.528C271.874 14.824 272.242 14.192 272.738 13.632C273.25 13.056 273.746 12.584 274.226 12.216C274.706 11.848 275.386 11.392 276.266 10.848C277.642 9.984 278.546 9.336 278.978 8.904C279.874 8.024 280.322 7.048 280.322 5.976C280.322 5.032 280.018 4.264 279.41 3.672C278.802 3.064 278.01 2.76 277.034 2.76C275.866 2.76 275.026 3.168 274.514 3.984C274.018 4.784 273.754 5.8 273.722 7.032H271.658V6.576C271.658 4.896 272.154 3.544 273.146 2.52C274.154 1.496 275.482 0.983999 277.13 0.983999C278.746 0.983999 280.034 1.432 280.994 2.328C281.954 3.224 282.434 4.424 282.434 5.928C282.434 6.568 282.322 7.176 282.098 7.752C281.89 8.312 281.65 8.784 281.378 9.168C281.122 9.552 280.722 9.96 280.178 10.392C279.65 10.824 279.21 11.16 278.858 11.4C278.506 11.624 278.002 11.936 277.346 12.336C276.034 13.12 275.162 13.728 274.73 14.16C274.122 14.752 273.73 15.416 273.554 16.152H282.29ZM285.042 6.504C285.09 4.744 285.578 3.384 286.506 2.424C287.45 1.464 288.762 0.983999 290.442 0.983999C291.946 0.983999 293.154 1.392 294.066 2.208C294.978 3.024 295.434 4.096 295.434 5.424C295.434 6.224 295.226 6.944 294.81 7.584C294.41 8.208 293.842 8.672 293.106 8.976C294.066 9.2 294.826 9.68 295.386 10.416C295.946 11.152 296.226 12.04 296.226 13.08C296.242 14.648 295.698 15.92 294.594 16.896C293.506 17.856 292.09 18.336 290.346 18.336C288.618 18.336 287.234 17.864 286.194 16.92C285.17 15.96 284.658 14.672 284.658 13.056V12.744H286.674C286.722 13.96 287.066 14.896 287.706 15.552C288.346 16.208 289.234 16.536 290.37 16.536C291.458 16.536 292.338 16.232 293.01 15.624C293.698 15 294.042 14.2 294.042 13.224C294.042 12.232 293.698 11.44 293.01 10.848C292.338 10.256 291.426 9.96 290.273 9.96C289.986 9.96 289.618 9.992 289.17 10.056V8.328C289.394 8.344 289.626 8.352 289.866 8.352C290.922 8.352 291.754 8.104 292.362 7.608C292.986 7.096 293.298 6.408 293.298 5.544C293.298 4.712 293.026 4.04 292.482 3.528C291.954 3.016 291.242 2.76 290.346 2.76C289.322 2.76 288.522 3.088 287.946 3.744C287.37 4.384 287.066 5.304 287.034 6.504H285.042ZM316.457 16.368V17.952C316.041 18.112 315.577 18.192 315.065 18.192C313.897 18.192 313.297 17.584 313.265 16.368C312.097 17.68 310.601 18.336 308.777 18.336C307.561 18.336 306.593 18.024 305.873 17.4C305.169 16.776 304.817 15.92 304.817 14.832C304.817 12.624 306.281 11.336 309.209 10.968C310.937 10.76 311.937 10.608 312.209 10.512C312.785 10.32 313.097 9.92 313.145 9.312C313.161 9.216 313.169 9.112 313.169 9C313.169 7.64 312.233 6.96 310.361 6.96C309.401 6.96 308.673 7.16 308.177 7.56C307.681 7.944 307.385 8.584 307.289 9.48H305.297C305.329 8.152 305.801 7.12 306.713 6.384C307.625 5.648 308.881 5.28 310.481 5.28C312.225 5.28 313.521 5.68 314.369 6.48C314.641 6.736 314.841 7.072 314.969 7.488C315.097 7.904 315.169 8.248 315.185 8.52C315.201 8.776 315.209 9.168 315.209 9.696C315.209 10.32 315.193 11.248 315.161 12.48C315.129 13.696 315.113 14.608 315.113 15.216C315.113 15.664 315.169 15.984 315.281 16.176C315.409 16.352 315.633 16.44 315.953 16.44C316.081 16.44 316.249 16.416 316.457 16.368ZM313.169 11.568C313.025 11.68 312.873 11.776 312.713 11.856C312.553 11.936 312.345 12 312.089 12.048C311.849 12.096 311.681 12.136 311.585 12.168C311.505 12.184 311.297 12.216 310.961 12.264C310.625 12.296 310.449 12.312 310.433 12.312C309.937 12.376 309.609 12.424 309.449 12.456C309.305 12.472 309.017 12.536 308.585 12.648C308.169 12.76 307.873 12.888 307.697 13.032C307.521 13.176 307.345 13.392 307.169 13.68C307.009 13.952 306.929 14.28 306.929 14.664C306.929 15.304 307.145 15.808 307.577 16.176C308.025 16.544 308.633 16.728 309.401 16.728C310.377 16.728 311.249 16.44 312.017 15.864C312.785 15.288 313.169 14.608 313.169 13.824V11.568ZM320.42 18H318.38V5.616H328.652V18H326.612V7.416H320.42V18ZM333.636 5.616V7.368C334.532 5.944 335.924 5.232 337.812 5.232C339.54 5.232 340.908 5.816 341.916 6.984C342.94 8.152 343.452 9.736 343.452 11.736C343.452 13.736 342.948 15.336 341.94 16.536C340.948 17.72 339.604 18.312 337.908 18.312C336.132 18.312 334.748 17.632 333.756 16.272V22.776H331.716V5.616H333.636ZM337.5 6.936C336.316 6.936 335.38 7.368 334.692 8.232C334.02 9.08 333.684 10.256 333.684 11.76C333.684 13.264 334.028 14.448 334.716 15.312C335.42 16.16 336.372 16.584 337.572 16.584C338.74 16.584 339.66 16.152 340.332 15.288C341.004 14.424 341.34 13.248 341.34 11.76C341.34 10.256 340.996 9.08 340.308 8.232C339.636 7.368 338.7 6.936 337.5 6.936ZM356.526 14.088C355.902 16.968 354.102 18.408 351.126 18.408C349.302 18.408 347.87 17.84 346.83 16.704C345.806 15.568 345.294 13.992 345.294 11.976C345.294 9.976 345.822 8.36 346.878 7.128C347.95 5.88 349.342 5.256 351.054 5.256C352.958 5.256 354.366 5.904 355.278 7.2C356.206 8.48 356.67 10.104 356.67 12.072V12.36H347.358L347.334 12.504C347.334 13.816 347.678 14.848 348.366 15.6C349.054 16.352 349.998 16.728 351.198 16.728C352.094 16.728 352.798 16.52 353.31 16.104C353.838 15.688 354.246 15.016 354.534 14.088H356.526ZM354.558 10.704C354.462 9.52 354.102 8.6 353.478 7.944C352.854 7.272 352.03 6.936 351.006 6.936C350.014 6.936 349.19 7.272 348.534 7.944C347.878 8.616 347.486 9.536 347.358 10.704H354.558ZM368.731 5.616V18H366.691V7.416H362.275L362.107 12.888C362.059 14.776 361.715 16.144 361.075 16.992C360.435 17.84 359.635 18.264 358.675 18.264C358.083 18.264 357.595 18.176 357.211 18V16.344C357.419 16.456 357.779 16.512 358.291 16.512C358.771 16.512 359.179 16.256 359.515 15.744C359.867 15.216 360.059 14.336 360.091 13.104L360.307 5.616H368.731ZM381.539 18H379.499V12.936H376.787L372.875 18H370.163L374.435 12.864C373.523 12.72 372.779 12.336 372.203 11.712C371.643 11.072 371.363 10.256 371.363 9.264C371.363 8.112 371.707 7.216 372.395 6.576C373.083 5.936 374.035 5.616 375.251 5.616H381.539V18ZM379.499 7.416H375.899C374.267 7.416 373.451 8.032 373.451 9.264C373.451 10.512 374.267 11.136 375.899 11.136H379.499V7.416Z" fill="black"/>
<path d="M48.432 55.912V73H46.176V57.88H37.152V73H34.896V55.912H48.432ZM53.8963 73H51.8563V60.616H53.8963V65.536H60.0883V60.616H62.1283V73H60.0883V67.336H53.8963V73Z" fill="black" fill-opacity="0.8"/>
<path d="M50.592 110.008V127H48.36V114.688H44.088V113.152C45.464 113.152 46.552 112.928 47.352 112.48C48.168 112.032 48.712 111.208 48.984 110.008H50.592Z" fill="black"/>
<path d="M197.592 286.008V303H195.36V290.688H191.088V289.152C192.464 289.152 193.552 288.928 194.352 288.48C195.168 288.032 195.712 287.208 195.984 286.008H197.592Z" fill="black" fill-opacity="0.5"/>
<path d="M45.96 161.904C45.208 161.584 44.624 161.12 44.208 160.512C43.808 159.888 43.608 159.16 43.608 158.328C43.608 157.048 44.08 156.008 45.024 155.208C45.968 154.392 47.184 153.984 48.672 153.984C50.144 153.984 51.344 154.384 52.272 155.184C53.216 155.968 53.688 156.984 53.688 158.232C53.688 159.96 52.912 161.184 51.36 161.904C53.36 162.608 54.36 163.992 54.36 166.056C54.36 167.672 53.84 168.96 52.8 169.92C51.76 170.864 50.36 171.336 48.6 171.336C46.904 171.336 45.536 170.872 44.496 169.944C43.472 169 42.96 167.752 42.96 166.2C42.96 165.176 43.216 164.296 43.728 163.56C44.256 162.808 45 162.256 45.96 161.904ZM50.808 156.528C50.28 156.048 49.568 155.808 48.672 155.808C47.776 155.808 47.056 156.056 46.512 156.552C45.968 157.032 45.696 157.672 45.696 158.472C45.696 159.272 45.968 159.92 46.512 160.416C47.056 160.896 47.776 161.136 48.672 161.136C49.552 161.136 50.256 160.896 50.784 160.416C51.328 159.92 51.6 159.272 51.6 158.472C51.6 157.656 51.336 157.008 50.808 156.528ZM48.6 162.792C47.576 162.792 46.736 163.112 46.08 163.752C45.424 164.376 45.096 165.176 45.096 166.152C45.096 167.16 45.424 167.992 46.08 168.648C46.752 169.288 47.608 169.608 48.648 169.608C49.704 169.608 50.56 169.288 51.216 168.648C51.888 168.008 52.224 167.184 52.224 166.176C52.224 165.168 51.888 164.352 51.216 163.728C50.544 163.104 49.672 162.792 48.6 162.792Z" fill="black"/>
<path d="M43.592 198.008V215H41.36V202.688H37.088V201.152C38.464 201.152 39.552 200.928 40.352 200.48C41.168 200.032 41.712 199.208 41.984 198.008H43.592ZM59.6399 198.296V200.096H52.7519L51.7439 205.16C52.5759 204.264 53.7199 203.816 55.1759 203.816C56.7759 203.816 58.0719 204.336 59.0639 205.376C60.0559 206.4 60.5519 207.736 60.5519 209.384C60.5519 211.112 60.0079 212.536 58.9199 213.656C57.8319 214.776 56.4159 215.336 54.6719 215.336C53.0559 215.336 51.7439 214.888 50.7359 213.992C49.7439 213.096 49.2239 211.904 49.1759 210.416H51.2399C51.3199 211.36 51.6799 212.128 52.3199 212.72C52.9599 213.312 53.7519 213.608 54.6959 213.608C55.7519 213.608 56.6319 213.224 57.3359 212.456C58.0399 211.688 58.3919 210.736 58.3919 209.6C58.3919 208.416 58.0479 207.456 57.3599 206.72C56.6719 205.968 55.7759 205.592 54.6719 205.592C53.2639 205.592 52.1759 206.144 51.4079 207.248L49.6559 207.128L51.2399 198.296H59.6399Z" fill="black"/>
<path d="M46.688 257.152V259H35.6C35.648 258.056 35.792 257.232 36.032 256.528C36.272 255.824 36.64 255.192 37.136 254.632C37.648 254.056 38.144 253.584 38.624 253.216C39.104 252.848 39.784 252.392 40.664 251.848C42.04 250.984 42.944 250.336 43.376 249.904C44.272 249.024 44.72 248.048 44.72 246.976C44.72 246.032 44.416 245.264 43.808 244.672C43.2 244.064 42.408 243.76 41.432 243.76C40.264 243.76 39.424 244.168 38.912 244.984C38.416 245.784 38.152 246.8 38.12 248.032H36.056V247.576C36.056 245.896 36.552 244.544 37.544 243.52C38.552 242.496 39.88 241.984 41.528 241.984C43.144 241.984 44.432 242.432 45.392 243.328C46.352 244.224 46.832 245.424 46.832 246.928C46.832 247.568 46.72 248.176 46.496 248.752C46.288 249.312 46.048 249.784 45.776 250.168C45.52 250.552 45.12 250.96 44.576 251.392C44.048 251.824 43.608 252.16 43.256 252.4C42.904 252.624 42.4 252.936 41.744 253.336C40.432 254.12 39.56 254.728 39.128 255.16C38.52 255.752 38.128 256.416 37.952 257.152H46.688ZM60.0239 257.152V259H48.9359C48.9839 258.056 49.1279 257.232 49.3679 256.528C49.6079 255.824 49.9759 255.192 50.4719 254.632C50.9839 254.056 51.4799 253.584 51.9599 253.216C52.4399 252.848 53.1199 252.392 53.9999 251.848C55.3759 250.984 56.2799 250.336 56.7119 249.904C57.6079 249.024 58.0559 248.048 58.0559 246.976C58.0559 246.032 57.7519 245.264 57.1439 244.672C56.5359 244.064 55.7439 243.76 54.7679 243.76C53.5999 243.76 52.7599 244.168 52.2479 244.984C51.7519 245.784 51.4879 246.8 51.4559 248.032H49.3919V247.576C49.3919 245.896 49.8879 244.544 50.8799 243.52C51.8879 242.496 53.2159 241.984 54.8639 241.984C56.4799 241.984 57.7679 242.432 58.7279 243.328C59.6879 244.224 60.1679 245.424 60.1679 246.928C60.1679 247.568 60.0559 248.176 59.8319 248.752C59.6239 249.312 59.3839 249.784 59.1119 250.168C58.8559 250.552 58.4559 250.96 57.9119 251.392C57.3839 251.824 56.9439 252.16 56.5919 252.4C56.2399 252.624 55.7359 252.936 55.0799 253.336C53.7679 254.12 52.8959 254.728 52.4639 255.16C51.8559 255.752 51.4639 256.416 51.2879 257.152H60.0239Z" fill="black"/>
<path d="M46.688 301.152V303H35.6C35.648 302.056 35.792 301.232 36.032 300.528C36.272 299.824 36.64 299.192 37.136 298.632C37.648 298.056 38.144 297.584 38.624 297.216C39.104 296.848 39.784 296.392 40.664 295.848C42.04 294.984 42.944 294.336 43.376 293.904C44.272 293.024 44.72 292.048 44.72 290.976C44.72 290.032 44.416 289.264 43.808 288.672C43.2 288.064 42.408 287.76 41.432 287.76C40.264 287.76 39.424 288.168 38.912 288.984C38.416 289.784 38.152 290.8 38.12 292.032H36.056V291.576C36.056 289.896 36.552 288.544 37.544 287.52C38.552 286.496 39.88 285.984 41.528 285.984C43.144 285.984 44.432 286.432 45.392 287.328C46.352 288.224 46.832 289.424 46.832 290.928C46.832 291.568 46.72 292.176 46.496 292.752C46.288 293.312 46.048 293.784 45.776 294.168C45.52 294.552 45.12 294.96 44.576 295.392C44.048 295.824 43.608 296.16 43.256 296.4C42.904 296.624 42.4 296.936 41.744 297.336C40.432 298.12 39.56 298.728 39.128 299.16C38.52 299.752 38.128 300.416 37.952 301.152H46.688ZM49.5359 298.896H51.5519C51.6639 299.728 51.9919 300.384 52.5359 300.864C53.0959 301.328 53.8079 301.56 54.6719 301.56C56.8959 301.56 58.1599 299.712 58.4639 296.016C58.4959 295.68 58.5119 295.304 58.5119 294.888C57.5519 296.44 56.1679 297.216 54.3599 297.216C52.8079 297.216 51.5519 296.712 50.5919 295.704C49.6319 294.68 49.1519 293.344 49.1519 291.696C49.1519 290 49.6719 288.624 50.7119 287.568C51.7519 286.512 53.1039 285.984 54.7679 285.984C58.6719 285.984 60.6239 288.752 60.6239 294.288C60.6239 295.136 60.5679 295.952 60.4559 296.736C60.3599 297.504 60.1759 298.304 59.9039 299.136C59.6319 299.952 59.2799 300.664 58.8479 301.272C58.4159 301.88 57.8319 302.376 57.0959 302.76C56.3759 303.144 55.5439 303.336 54.5999 303.336C53.1599 303.336 51.9759 302.944 51.0479 302.16C50.1359 301.376 49.6319 300.288 49.5359 298.896ZM54.6719 287.808C53.6639 287.808 52.8479 288.16 52.2239 288.864C51.6159 289.552 51.3119 290.472 51.3119 291.624C51.3119 292.712 51.5999 293.616 52.1759 294.336C52.7679 295.04 53.5999 295.392 54.6719 295.392C55.7119 295.392 56.5519 295.056 57.1919 294.384C57.8319 293.696 58.1519 292.792 58.1519 291.672C58.1519 290.504 57.8319 289.568 57.1919 288.864C56.5519 288.16 55.7119 287.808 54.6719 287.808Z" fill="black"/>
<path d="M109.896 55.912H117.192C118.76 55.912 120.056 56.256 121.08 56.944C122.12 57.632 122.64 58.712 122.64 60.184C122.64 61.032 122.408 61.792 121.944 62.464C121.496 63.12 120.888 63.584 120.12 63.856C121.176 64.096 121.984 64.592 122.544 65.344C123.12 66.096 123.408 67.04 123.408 68.176C123.408 71.392 121.248 73 116.928 73H109.896V55.912ZM112.104 57.832V63.232H116.16C116.624 63.232 117.016 63.224 117.336 63.208C117.672 63.176 118.048 63.112 118.464 63.016C118.88 62.92 119.208 62.784 119.448 62.608C119.704 62.416 119.92 62.144 120.096 61.792C120.288 61.44 120.384 61.016 120.384 60.52C120.384 60.024 120.304 59.608 120.144 59.272C119.984 58.92 119.792 58.656 119.568 58.48C119.344 58.288 119.032 58.144 118.632 58.048C118.248 57.952 117.896 57.896 117.576 57.88C117.272 57.848 116.872 57.832 116.376 57.832H112.104ZM112.104 65.008V71.104H116.616C117.176 71.104 117.632 71.096 117.984 71.08C118.336 71.048 118.728 70.976 119.16 70.864C119.608 70.752 119.96 70.592 120.216 70.384C120.472 70.16 120.688 69.848 120.864 69.448C121.04 69.032 121.128 68.536 121.128 67.96C121.128 67.48 121.064 67.064 120.936 66.712C120.824 66.36 120.624 66.08 120.336 65.872C120.064 65.664 119.8 65.496 119.544 65.368C119.304 65.24 118.952 65.152 118.488 65.104C118.024 65.056 117.664 65.032 117.408 65.032C117.152 65.016 116.76 65.008 116.232 65.008H112.104ZM135.446 62.416H131.006V73H128.966V62.416H124.526V60.616H135.446V62.416Z" fill="black" fill-opacity="0.8"/>
<path d="M128.688 125.152V127H117.6C117.648 126.056 117.792 125.232 118.032 124.528C118.272 123.824 118.64 123.192 119.136 122.632C119.648 122.056 120.144 121.584 120.624 121.216C121.104 120.848 121.784 120.392 122.664 119.848C124.04 118.984 124.944 118.336 125.376 117.904C126.272 117.024 126.72 116.048 126.72 114.976C126.72 114.032 126.416 113.264 125.808 112.672C125.2 112.064 124.408 111.76 123.432 111.76C122.264 111.76 121.424 112.168 120.912 112.984C120.416 113.784 120.152 114.8 120.12 116.032H118.056V115.576C118.056 113.896 118.552 112.544 119.544 111.52C120.552 110.496 121.88 109.984 123.528 109.984C125.144 109.984 126.432 110.432 127.392 111.328C128.352 112.224 128.832 113.424 128.832 114.928C128.832 115.568 128.72 116.176 128.496 116.752C128.288 117.312 128.048 117.784 127.776 118.168C127.52 118.552 127.12 118.96 126.576 119.392C126.048 119.824 125.608 120.16 125.256 120.4C124.904 120.624 124.4 120.936 123.744 121.336C122.432 122.12 121.56 122.728 121.128 123.16C120.52 123.752 120.128 124.416 119.952 125.152H128.688Z" fill="black"/>
<g filter="url(#filter0_d_256_4)">
<rect x="100" y="235" width="42" height="34" fill="white" fill-opacity="0.5" shape-rendering="crispEdges"/>
</g>
<g filter="url(#filter1_d_256_4)">
<rect x="188" y="264" width="5" height="5" fill="black"/>
</g>
<g filter="url(#filter2_d_256_4)">
<rect x="197" y="264" width="5" height="5" fill="black"/>
</g>
<path d="M274.688 301.152V303H263.6C263.648 302.056 263.792 301.232 264.032 300.528C264.272 299.824 264.64 299.192 265.136 298.632C265.648 298.056 266.144 297.584 266.624 297.216C267.104 296.848 267.784 296.392 268.664 295.848C270.04 294.984 270.944 294.336 271.376 293.904C272.272 293.024 272.72 292.048 272.72 290.976C272.72 290.032 272.416 289.264 271.808 288.672C271.2 288.064 270.408 287.76 269.432 287.76C268.264 287.76 267.424 288.168 266.912 288.984C266.416 289.784 266.152 290.8 266.12 292.032H264.056V291.576C264.056 289.896 264.552 288.544 265.544 287.52C266.552 286.496 267.88 285.984 269.528 285.984C271.144 285.984 272.432 286.432 273.392 287.328C274.352 288.224 274.832 289.424 274.832 290.928C274.832 291.568 274.72 292.176 274.496 292.752C274.288 293.312 274.048 293.784 273.776 294.168C273.52 294.552 273.12 294.96 272.576 295.392C272.048 295.824 271.608 296.16 271.256 296.4C270.904 296.624 270.4 296.936 269.744 297.336C268.432 298.12 267.56 298.728 267.128 299.16C266.52 299.752 266.128 300.416 265.952 301.152H274.688Z" fill="black" fill-opacity="0.5"/>
<path d="M118.2 166.896H120.216C120.328 167.728 120.656 168.384 121.2 168.864C121.76 169.328 122.472 169.56 123.336 169.56C125.56 169.56 126.824 167.712 127.128 164.016C127.16 163.68 127.176 163.304 127.176 162.888C126.216 164.44 124.832 165.216 123.024 165.216C121.472 165.216 120.216 164.712 119.256 163.704C118.296 162.68 117.816 161.344 117.816 159.696C117.816 158 118.336 156.624 119.376 155.568C120.416 154.512 121.768 153.984 123.432 153.984C127.336 153.984 129.288 156.752 129.288 162.288C129.288 163.136 129.232 163.952 129.12 164.736C129.024 165.504 128.84 166.304 128.568 167.136C128.296 167.952 127.944 168.664 127.512 169.272C127.08 169.88 126.496 170.376 125.76 170.76C125.04 171.144 124.208 171.336 123.264 171.336C121.824 171.336 120.64 170.944 119.712 170.16C118.8 169.376 118.296 168.288 118.2 166.896ZM123.336 155.808C122.328 155.808 121.512 156.16 120.888 156.864C120.28 157.552 119.976 158.472 119.976 159.624C119.976 160.712 120.264 161.616 120.84 162.336C121.432 163.04 122.264 163.392 123.336 163.392C124.376 163.392 125.216 163.056 125.856 162.384C126.496 161.696 126.816 160.792 126.816 159.672C126.816 158.504 126.496 157.568 125.856 156.864C125.216 156.16 124.376 155.808 123.336 155.808Z" fill="black"/>
<path d="M116.592 198.008V215H114.36V202.688H110.088V201.152C111.464 201.152 112.552 200.928 113.352 200.48C114.168 200.032 114.712 199.208 114.984 198.008H116.592ZM133.336 202.4H131.248C131.136 201.584 130.832 200.944 130.336 200.48C129.856 200 129.2 199.76 128.368 199.76C127.792 199.76 127.272 199.864 126.808 200.072C126.36 200.28 125.992 200.584 125.704 200.984C125.432 201.368 125.2 201.76 125.008 202.16C124.816 202.56 124.672 203.048 124.576 203.624C124.48 204.2 124.416 204.672 124.384 205.04C124.352 205.392 124.32 205.824 124.288 206.336C125.216 204.848 126.624 204.104 128.512 204.104C130.096 204.104 131.368 204.608 132.328 205.616C133.304 206.608 133.792 207.92 133.792 209.552C133.792 211.232 133.28 212.616 132.256 213.704C131.248 214.792 129.896 215.336 128.2 215.336C124.248 215.336 122.272 212.52 122.272 206.888C122.272 206.008 122.32 205.176 122.416 204.392C122.528 203.608 122.72 202.816 122.992 202.016C123.28 201.2 123.648 200.504 124.096 199.928C124.544 199.352 125.136 198.888 125.872 198.536C126.624 198.168 127.48 197.984 128.44 197.984C129.864 197.984 131.008 198.376 131.872 199.16C132.736 199.928 133.224 201.008 133.336 202.4ZM128.152 205.88C127.112 205.88 126.272 206.232 125.632 206.936C124.992 207.624 124.672 208.528 124.672 209.648C124.672 210.816 124.992 211.752 125.632 212.456C126.288 213.16 127.144 213.512 128.2 213.512C129.224 213.512 130.048 213.176 130.672 212.504C131.312 211.816 131.632 210.896 131.632 209.744C131.632 208.56 131.32 207.624 130.696 206.936C130.072 206.232 129.224 205.88 128.152 205.88Z" fill="black"/>
<path d="M119.688 257.152V259H108.6C108.648 258.056 108.792 257.232 109.032 256.528C109.272 255.824 109.64 255.192 110.136 254.632C110.648 254.056 111.144 253.584 111.624 253.216C112.104 252.848 112.784 252.392 113.664 251.848C115.04 250.984 115.944 250.336 116.376 249.904C117.272 249.024 117.72 248.048 117.72 246.976C117.72 246.032 117.416 245.264 116.808 244.672C116.2 244.064 115.408 243.76 114.432 243.76C113.264 243.76 112.424 244.168 111.912 244.984C111.416 245.784 111.152 246.8 111.12 248.032H109.056V247.576C109.056 245.896 109.552 244.544 110.544 243.52C111.552 242.496 112.88 241.984 114.528 241.984C116.144 241.984 117.432 242.432 118.392 243.328C119.352 244.224 119.832 245.424 119.832 246.928C119.832 247.568 119.72 248.176 119.496 248.752C119.288 249.312 119.048 249.784 118.776 250.168C118.52 250.552 118.12 250.96 117.576 251.392C117.048 251.824 116.608 252.16 116.256 252.4C115.904 252.624 115.4 252.936 114.744 253.336C113.432 254.12 112.56 254.728 112.128 255.16C111.52 255.752 111.128 256.416 110.952 257.152H119.688ZM122.44 247.504C122.488 245.744 122.976 244.384 123.904 243.424C124.848 242.464 126.16 241.984 127.84 241.984C129.344 241.984 130.552 242.392 131.464 243.208C132.376 244.024 132.832 245.096 132.832 246.424C132.832 247.224 132.624 247.944 132.208 248.584C131.808 249.208 131.24 249.672 130.504 249.976C131.464 250.2 132.224 250.68 132.784 251.416C133.344 252.152 133.624 253.04 133.624 254.08C133.64 255.648 133.096 256.92 131.992 257.896C130.904 258.856 129.488 259.336 127.744 259.336C126.016 259.336 124.632 258.864 123.592 257.92C122.568 256.96 122.056 255.672 122.056 254.056V253.744H124.072C124.12 254.96 124.464 255.896 125.104 256.552C125.744 257.208 126.632 257.536 127.768 257.536C128.856 257.536 129.736 257.232 130.408 256.624C131.096 256 131.44 255.2 131.44 254.224C131.44 253.232 131.096 252.44 130.408 251.848C129.736 251.256 128.824 250.96 127.672 250.96C127.384 250.96 127.016 250.992 126.568 251.056V249.328C126.792 249.344 127.024 249.352 127.264 249.352C128.32 249.352 129.152 249.104 129.76 248.608C130.384 248.096 130.696 247.408 130.696 246.544C130.696 245.712 130.424 245.04 129.88 244.528C129.352 244.016 128.64 243.76 127.744 243.76C126.72 243.76 125.92 244.088 125.344 244.744C124.768 245.384 124.464 246.304 124.432 247.504H122.44Z" fill="black"/>
<path d="M109.104 291.504C109.152 289.744 109.64 288.384 110.568 287.424C111.512 286.464 112.824 285.984 114.504 285.984C116.008 285.984 117.216 286.392 118.128 287.208C119.04 288.024 119.496 289.096 119.496 290.424C119.496 291.224 119.288 291.944 118.872 292.584C118.472 293.208 117.904 293.672 117.168 293.976C118.128 294.2 118.888 294.68 119.448 295.416C120.008 296.152 120.288 297.04 120.288 298.08C120.304 299.648 119.76 300.92 118.656 301.896C117.568 302.856 116.152 303.336 114.408 303.336C112.68 303.336 111.296 302.864 110.256 301.92C109.232 300.96 108.72 299.672 108.72 298.056V297.744H110.736C110.784 298.96 111.128 299.896 111.768 300.552C112.408 301.208 113.296 301.536 114.432 301.536C115.52 301.536 116.4 301.232 117.072 300.624C117.76 300 118.104 299.2 118.104 298.224C118.104 297.232 117.76 296.44 117.072 295.848C116.4 295.256 115.488 294.96 114.336 294.96C114.048 294.96 113.68 294.992 113.232 295.056V293.328C113.456 293.344 113.688 293.352 113.928 293.352C114.984 293.352 115.816 293.104 116.424 292.608C117.048 292.096 117.36 291.408 117.36 290.544C117.36 289.712 117.088 289.04 116.544 288.528C116.016 288.016 115.304 287.76 114.408 287.76C113.384 287.76 112.584 288.088 112.008 288.744C111.432 289.384 111.128 290.304 111.096 291.504H109.104ZM127.984 285.984C129.008 285.984 129.88 286.176 130.6 286.56C131.336 286.928 131.896 287.384 132.28 287.928C132.664 288.472 132.968 289.184 133.192 290.064C133.416 290.928 133.552 291.712 133.6 292.416C133.648 293.104 133.672 293.936 133.672 294.912C133.672 295.808 133.632 296.616 133.552 297.336C133.488 298.056 133.336 298.808 133.096 299.592C132.872 300.376 132.56 301.032 132.16 301.56C131.76 302.072 131.216 302.496 130.528 302.832C129.84 303.168 129.024 303.336 128.08 303.336C127.088 303.336 126.224 303.168 125.488 302.832C124.768 302.48 124.208 302.048 123.808 301.536C123.408 301.024 123.088 300.376 122.848 299.592C122.624 298.792 122.48 298.04 122.416 297.336C122.352 296.616 122.32 295.792 122.32 294.864C122.32 294.064 122.336 293.368 122.368 292.776C122.416 292.184 122.496 291.52 122.608 290.784C122.736 290.032 122.928 289.4 123.184 288.888C123.44 288.36 123.768 287.864 124.168 287.4C124.568 286.936 125.088 286.584 125.728 286.344C126.384 286.104 127.136 285.984 127.984 285.984ZM129.304 288.096C128.92 287.904 128.48 287.808 127.984 287.808C127.488 287.808 127.048 287.904 126.664 288.096C126.28 288.272 125.968 288.48 125.728 288.72C125.488 288.96 125.28 289.32 125.104 289.8C124.928 290.264 124.8 290.656 124.72 290.976C124.656 291.296 124.6 291.76 124.552 292.368C124.504 292.96 124.48 293.384 124.48 293.64C124.48 293.88 124.48 294.288 124.48 294.864C124.48 295.424 124.488 295.888 124.504 296.256C124.52 296.624 124.56 297.104 124.624 297.696C124.688 298.288 124.8 298.784 124.96 299.184C125.12 299.568 125.32 299.96 125.56 300.36C125.8 300.744 126.128 301.04 126.544 301.248C126.976 301.44 127.472 301.536 128.032 301.536C128.512 301.536 128.936 301.448 129.304 301.272C129.688 301.096 130 300.888 130.24 300.648C130.48 300.408 130.68 300.072 130.84 299.64C131.016 299.192 131.144 298.808 131.224 298.488C131.304 298.152 131.36 297.712 131.392 297.168C131.44 296.608 131.464 296.2 131.464 295.944C131.48 295.672 131.488 295.28 131.488 294.768C131.488 294.208 131.488 293.808 131.488 293.568C131.488 293.328 131.464 292.912 131.416 292.32C131.368 291.728 131.304 291.272 131.224 290.952C131.16 290.632 131.04 290.24 130.864 289.776C130.688 289.312 130.48 288.96 130.24 288.72C130 288.48 129.688 288.272 129.304 288.096Z" fill="black"/>
<path d="M195.368 66.544C195.176 68.704 194.424 70.392 193.112 71.608C191.816 72.808 190.104 73.408 187.976 73.408C185.544 73.408 183.616 72.608 182.192 71.008C180.768 69.392 180.056 67.216 180.056 64.48C180.056 61.92 180.768 59.792 182.192 58.096C183.632 56.384 185.616 55.528 188.144 55.528C189.952 55.528 191.544 56.016 192.92 56.992C194.296 57.968 195.064 59.32 195.224 61.048H192.968C192.712 59.928 192.152 59.056 191.288 58.432C190.424 57.792 189.36 57.472 188.096 57.472C186.192 57.472 184.752 58.144 183.776 59.488C182.816 60.832 182.336 62.488 182.336 64.456C182.336 66.632 182.848 68.344 183.872 69.592C184.896 70.84 186.296 71.464 188.072 71.464C189.528 71.464 190.688 71.048 191.552 70.216C192.416 69.368 192.936 68.144 193.112 66.544H195.368ZM199.776 60.616V62.368C200.672 60.944 202.064 60.232 203.952 60.232C205.68 60.232 207.048 60.816 208.056 61.984C209.08 63.152 209.592 64.736 209.592 66.736C209.592 68.736 209.088 70.336 208.08 71.536C207.088 72.72 205.744 73.312 204.048 73.312C202.272 73.312 200.888 72.632 199.896 71.272V77.776H197.856V60.616H199.776ZM203.64 61.936C202.456 61.936 201.52 62.368 200.832 63.232C200.16 64.08 199.824 65.256 199.824 66.76C199.824 68.264 200.168 69.448 200.856 70.312C201.56 71.16 202.512 71.584 203.712 71.584C204.88 71.584 205.8 71.152 206.472 70.288C207.144 69.424 207.48 68.248 207.48 66.76C207.48 65.256 207.136 64.08 206.448 63.232C205.776 62.368 204.84 61.936 203.64 61.936Z" fill="black" fill-opacity="0.8"/>
<path d="M191.104 115.504C191.152 113.744 191.64 112.384 192.568 111.424C193.512 110.464 194.824 109.984 196.504 109.984C198.008 109.984 199.216 110.392 200.128 111.208C201.04 112.024 201.496 113.096 201.496 114.424C201.496 115.224 201.288 115.944 200.872 116.584C200.472 117.208 199.904 117.672 199.168 117.976C200.128 118.2 200.888 118.68 201.448 119.416C202.008 120.152 202.288 121.04 202.288 122.08C202.304 123.648 201.76 124.92 200.656 125.896C199.568 126.856 198.152 127.336 196.408 127.336C194.68 127.336 193.296 126.864 192.256 125.92C191.232 124.96 190.72 123.672 190.72 122.056V121.744H192.736C192.784 122.96 193.128 123.896 193.768 124.552C194.408 125.208 195.296 125.536 196.432 125.536C197.52 125.536 198.4 125.232 199.072 124.624C199.76 124 200.104 123.2 200.104 122.224C200.104 121.232 199.76 120.44 199.072 119.848C198.4 119.256 197.488 118.96 196.336 118.96C196.048 118.96 195.68 118.992 195.232 119.056V117.328C195.456 117.344 195.688 117.352 195.928 117.352C196.984 117.352 197.816 117.104 198.424 116.608C199.048 116.096 199.36 115.408 199.36 114.544C199.36 113.712 199.088 113.04 198.544 112.528C198.016 112.016 197.304 111.76 196.408 111.76C195.384 111.76 194.584 112.088 194.008 112.744C193.432 113.384 193.128 114.304 193.096 115.504H191.104Z" fill="black"/>
<path d="M337.104 291.504C337.152 289.744 337.64 288.384 338.568 287.424C339.512 286.464 340.824 285.984 342.504 285.984C344.008 285.984 345.216 286.392 346.128 287.208C347.04 288.024 347.496 289.096 347.496 290.424C347.496 291.224 347.288 291.944 346.872 292.584C346.472 293.208 345.904 293.672 345.168 293.976C346.128 294.2 346.888 294.68 347.448 295.416C348.008 296.152 348.288 297.04 348.288 298.08C348.304 299.648 347.76 300.92 346.656 301.896C345.568 302.856 344.152 303.336 342.408 303.336C340.68 303.336 339.296 302.864 338.256 301.92C337.232 300.96 336.72 299.672 336.72 298.056V297.744H338.736C338.784 298.96 339.128 299.896 339.768 300.552C340.408 301.208 341.296 301.536 342.432 301.536C343.52 301.536 344.4 301.232 345.072 300.624C345.76 300 346.104 299.2 346.104 298.224C346.104 297.232 345.76 296.44 345.072 295.848C344.4 295.256 343.488 294.96 342.336 294.96C342.048 294.96 341.68 294.992 341.232 295.056V293.328C341.456 293.344 341.688 293.352 341.928 293.352C342.984 293.352 343.816 293.104 344.424 292.608C345.048 292.096 345.36 291.408 345.36 290.544C345.36 289.712 345.088 289.04 344.544 288.528C344.016 288.016 343.304 287.76 342.408 287.76C341.384 287.76 340.584 288.088 340.008 288.744C339.432 289.384 339.128 290.304 339.096 291.504H337.104Z" fill="black" fill-opacity="0.5"/>
<path d="M190.592 154.008V171H188.36V158.688H184.088V157.152C185.464 157.152 186.552 156.928 187.352 156.48C188.168 156.032 188.712 155.208 188.984 154.008H190.592ZM201.984 153.984C203.008 153.984 203.88 154.176 204.6 154.56C205.336 154.928 205.896 155.384 206.28 155.928C206.664 156.472 206.968 157.184 207.192 158.064C207.416 158.928 207.552 159.712 207.6 160.416C207.648 161.104 207.672 161.936 207.672 162.912C207.672 163.808 207.632 164.616 207.552 165.336C207.488 166.056 207.336 166.808 207.096 167.592C206.872 168.376 206.56 169.032 206.16 169.56C205.76 170.072 205.216 170.496 204.528 170.832C203.84 171.168 203.024 171.336 202.08 171.336C201.088 171.336 200.224 171.168 199.488 170.832C198.768 170.48 198.208 170.048 197.808 169.536C197.408 169.024 197.088 168.376 196.848 167.592C196.624 166.792 196.48 166.04 196.416 165.336C196.352 164.616 196.32 163.792 196.32 162.864C196.32 162.064 196.336 161.368 196.368 160.776C196.416 160.184 196.496 159.52 196.608 158.784C196.736 158.032 196.928 157.4 197.184 156.888C197.44 156.36 197.768 155.864 198.168 155.4C198.568 154.936 199.088 154.584 199.728 154.344C200.384 154.104 201.136 153.984 201.984 153.984ZM203.304 156.096C202.92 155.904 202.48 155.808 201.984 155.808C201.488 155.808 201.048 155.904 200.664 156.096C200.28 156.272 199.968 156.48 199.728 156.72C199.488 156.96 199.28 157.32 199.104 157.8C198.928 158.264 198.8 158.656 198.72 158.976C198.656 159.296 198.6 159.76 198.552 160.368C198.504 160.96 198.48 161.384 198.48 161.64C198.48 161.88 198.48 162.288 198.48 162.864C198.48 163.424 198.488 163.888 198.504 164.256C198.52 164.624 198.56 165.104 198.624 165.696C198.688 166.288 198.8 166.784 198.96 167.184C199.12 167.568 199.32 167.96 199.56 168.36C199.8 168.744 200.128 169.04 200.544 169.248C200.976 169.44 201.472 169.536 202.032 169.536C202.512 169.536 202.936 169.448 203.304 169.272C203.688 169.096 204 168.888 204.24 168.648C204.48 168.408 204.68 168.072 204.84 167.64C205.016 167.192 205.144 166.808 205.224 166.488C205.304 166.152 205.36 165.712 205.392 165.168C205.44 164.608 205.464 164.2 205.464 163.944C205.48 163.672 205.488 163.28 205.488 162.768C205.488 162.208 205.488 161.808 205.488 161.568C205.488 161.328 205.464 160.912 205.416 160.32C205.368 159.728 205.304 159.272 205.224 158.952C205.16 158.632 205.04 158.24 204.864 157.776C204.688 157.312 204.48 156.96 204.24 156.72C204 156.48 203.688 156.272 203.304 156.096Z" fill="black"/>
<path d="M190.592 198.008V215H188.36V202.688H184.088V201.152C185.464 201.152 186.552 200.928 187.352 200.48C188.168 200.032 188.712 199.208 188.984 198.008H190.592ZM207.432 198.296V200.048C203.72 204.288 201.552 209.272 200.928 215H198.672C198.864 212.376 199.552 209.776 200.736 207.2C201.936 204.624 203.472 202.304 205.344 200.24H196.44V198.296H207.432Z" fill="black"/>
<path d="M193.688 257.152V259H182.6C182.648 258.056 182.792 257.232 183.032 256.528C183.272 255.824 183.64 255.192 184.136 254.632C184.648 254.056 185.144 253.584 185.624 253.216C186.104 252.848 186.784 252.392 187.664 251.848C189.04 250.984 189.944 250.336 190.376 249.904C191.272 249.024 191.72 248.048 191.72 246.976C191.72 246.032 191.416 245.264 190.808 244.672C190.2 244.064 189.408 243.76 188.432 243.76C187.264 243.76 186.424 244.168 185.912 244.984C185.416 245.784 185.152 246.8 185.12 248.032H183.056V247.576C183.056 245.896 183.552 244.544 184.544 243.52C185.552 242.496 186.88 241.984 188.528 241.984C190.144 241.984 191.432 242.432 192.392 243.328C193.352 244.224 193.832 245.424 193.832 246.928C193.832 247.568 193.72 248.176 193.496 248.752C193.288 249.312 193.048 249.784 192.776 250.168C192.52 250.552 192.12 250.96 191.576 251.392C191.048 251.824 190.608 252.16 190.256 252.4C189.904 252.624 189.4 252.936 188.744 253.336C187.432 254.12 186.56 254.728 186.128 255.16C185.52 255.752 185.128 256.416 184.952 257.152H193.688ZM207.696 253.168V254.896H205.392V259H203.472V254.896H196.008V252.976L203.736 241.984H205.392V253.168H207.696ZM203.472 253.168V244.984L197.808 253.168H203.472Z" fill="black"/>
<path d="M271.136 73H268.88V65.392C267.136 65.792 265.552 65.992 264.128 65.992C263.136 65.992 262.256 65.872 261.488 65.632C260.736 65.376 260.152 65.072 259.736 64.72C259.336 64.352 259.008 63.92 258.752 63.424C258.496 62.928 258.328 62.48 258.248 62.08C258.168 61.664 258.128 61.232 258.128 60.784V55.912H260.384V60.592C260.384 60.928 260.4 61.232 260.432 61.504C260.48 61.76 260.576 62.056 260.72 62.392C260.864 62.712 261.064 62.984 261.32 63.208C261.576 63.432 261.944 63.624 262.424 63.784C262.904 63.928 263.472 64 264.128 64C265.568 64 267.152 63.808 268.88 63.424V55.912H271.136V73ZM284.024 62.416H279.584V73H277.544V62.416H273.104V60.616H284.024V62.416Z" fill="black" fill-opacity="0.8"/>
<path d="M276.36 121.168V122.896H274.056V127H272.136V122.896H264.672V120.976L272.4 109.984H274.056V121.168H276.36ZM272.136 121.168V112.984L266.472 121.168H272.136Z" fill="black"/>
<path d="M424.36 297.168V298.896H422.056V303H420.136V298.896H412.672V296.976L420.4 285.984H422.056V297.168H424.36ZM420.136 297.168V288.984L414.472 297.168H420.136Z" fill="black" fill-opacity="0.5"/>
<path d="M266.592 154.008V171H264.36V158.688H260.088V157.152C261.464 157.152 262.552 156.928 263.352 156.48C264.168 156.032 264.712 155.208 264.984 154.008H266.592ZM279.928 154.008V171H277.696V158.688H273.424V157.152C274.8 157.152 275.888 156.928 276.688 156.48C277.504 156.032 278.048 155.208 278.32 154.008H279.928Z" fill="black"/>
<path d="M266.592 198.008V215H264.36V202.688H260.088V201.152C261.464 201.152 262.552 200.928 263.352 200.48C264.168 200.032 264.712 199.208 264.984 198.008H266.592ZM275.296 205.904C274.544 205.584 273.96 205.12 273.544 204.512C273.144 203.888 272.944 203.16 272.944 202.328C272.944 201.048 273.416 200.008 274.36 199.208C275.304 198.392 276.52 197.984 278.008 197.984C279.48 197.984 280.68 198.384 281.608 199.184C282.552 199.968 283.024 200.984 283.024 202.232C283.024 203.96 282.248 205.184 280.696 205.904C282.696 206.608 283.696 207.992 283.696 210.056C283.696 211.672 283.176 212.96 282.136 213.92C281.096 214.864 279.696 215.336 277.936 215.336C276.24 215.336 274.872 214.872 273.832 213.944C272.808 213 272.296 211.752 272.296 210.2C272.296 209.176 272.552 208.296 273.064 207.56C273.592 206.808 274.336 206.256 275.296 205.904ZM280.144 200.528C279.616 200.048 278.904 199.808 278.008 199.808C277.112 199.808 276.392 200.056 275.848 200.552C275.304 201.032 275.032 201.672 275.032 202.472C275.032 203.272 275.304 203.92 275.848 204.416C276.392 204.896 277.112 205.136 278.008 205.136C278.888 205.136 279.592 204.896 280.12 204.416C280.664 203.92 280.936 203.272 280.936 202.472C280.936 201.656 280.672 201.008 280.144 200.528ZM277.936 206.792C276.912 206.792 276.072 207.112 275.416 207.752C274.76 208.376 274.432 209.176 274.432 210.152C274.432 211.16 274.76 211.992 275.416 212.648C276.088 213.288 276.944 213.608 277.984 213.608C279.04 213.608 279.896 213.288 280.552 212.648C281.224 212.008 281.56 211.184 281.56 210.176C281.56 209.168 281.224 208.352 280.552 207.728C279.88 207.104 279.008 206.792 277.936 206.792Z" fill="black"/>
<path d="M269.688 257.152V259H258.6C258.648 258.056 258.792 257.232 259.032 256.528C259.272 255.824 259.64 255.192 260.136 254.632C260.648 254.056 261.144 253.584 261.624 253.216C262.104 252.848 262.784 252.392 263.664 251.848C265.04 250.984 265.944 250.336 266.376 249.904C267.272 249.024 267.72 248.048 267.72 246.976C267.72 246.032 267.416 245.264 266.808 244.672C266.2 244.064 265.408 243.76 264.432 243.76C263.264 243.76 262.424 244.168 261.912 244.984C261.416 245.784 261.152 246.8 261.12 248.032H259.056V247.576C259.056 245.896 259.552 244.544 260.544 243.52C261.552 242.496 262.88 241.984 264.528 241.984C266.144 241.984 267.432 242.432 268.392 243.328C269.352 244.224 269.832 245.424 269.832 246.928C269.832 247.568 269.72 248.176 269.496 248.752C269.288 249.312 269.048 249.784 268.776 250.168C268.52 250.552 268.12 250.96 267.576 251.392C267.048 251.824 266.608 252.16 266.256 252.4C265.904 252.624 265.4 252.936 264.744 253.336C263.432 254.12 262.56 254.728 262.128 255.16C261.52 255.752 261.128 256.416 260.952 257.152H269.688ZM282.64 242.296V244.096H275.752L274.744 249.16C275.576 248.264 276.72 247.816 278.176 247.816C279.776 247.816 281.072 248.336 282.064 249.376C283.056 250.4 283.552 251.736 283.552 253.384C283.552 255.112 283.008 256.536 281.92 257.656C280.832 258.776 279.416 259.336 277.672 259.336C276.056 259.336 274.744 258.888 273.736 257.992C272.744 257.096 272.224 255.904 272.176 254.416H274.24C274.32 255.36 274.68 256.128 275.32 256.72C275.96 257.312 276.752 257.608 277.696 257.608C278.752 257.608 279.632 257.224 280.336 256.456C281.04 255.688 281.392 254.736 281.392 253.6C281.392 252.416 281.048 251.456 280.36 250.72C279.672 249.968 278.776 249.592 277.672 249.592C276.264 249.592 275.176 250.144 274.408 251.248L272.656 251.128L274.24 242.296H282.64Z" fill="black"/>
<path d="M345.432 55.912V73H343.176V57.88H334.152V73H331.896V55.912H345.432ZM358.336 62.416H353.896V73H351.856V62.416H347.416V60.616H358.336V62.416Z" fill="black" fill-opacity="0.8"/>
<path d="M347.304 110.296V112.096H340.416L339.408 117.16C340.24 116.264 341.384 115.816 342.84 115.816C344.44 115.816 345.736 116.336 346.728 117.376C347.72 118.4 348.216 119.736 348.216 121.384C348.216 123.112 347.672 124.536 346.584 125.656C345.496 126.776 344.08 127.336 342.336 127.336C340.72 127.336 339.408 126.888 338.4 125.992C337.408 125.096 336.888 123.904 336.84 122.416H338.904C338.984 123.36 339.344 124.128 339.984 124.72C340.624 125.312 341.416 125.608 342.36 125.608C343.416 125.608 344.296 125.224 345 124.456C345.704 123.688 346.056 122.736 346.056 121.6C346.056 120.416 345.712 119.456 345.024 118.72C344.336 117.968 343.44 117.592 342.336 117.592C340.928 117.592 339.84 118.144 339.072 119.248L337.32 119.128L338.904 110.296H347.304Z" fill="black"/>
<path d="M493.304 286.296V288.096H486.416L485.408 293.16C486.24 292.264 487.384 291.816 488.84 291.816C490.44 291.816 491.736 292.336 492.728 293.376C493.72 294.4 494.216 295.736 494.216 297.384C494.216 299.112 493.672 300.536 492.584 301.656C491.496 302.776 490.08 303.336 488.336 303.336C486.72 303.336 485.408 302.888 484.4 301.992C483.408 301.096 482.888 299.904 482.84 298.416H484.904C484.984 299.36 485.344 300.128 485.984 300.72C486.624 301.312 487.416 301.608 488.36 301.608C489.416 301.608 490.296 301.224 491 300.456C491.704 299.688 492.056 298.736 492.056 297.6C492.056 296.416 491.712 295.456 491.024 294.72C490.336 293.968 489.44 293.592 488.336 293.592C486.928 293.592 485.84 294.144 485.072 295.248L483.32 295.128L484.904 286.296H493.304Z" fill="black" fill-opacity="0.5"/>
<path d="M338.592 154.008V171H336.36V158.688H332.088V157.152C333.464 157.152 334.552 156.928 335.352 156.48C336.168 156.032 336.712 155.208 336.984 154.008H338.592ZM355.024 169.152V171H343.936C343.984 170.056 344.128 169.232 344.368 168.528C344.608 167.824 344.976 167.192 345.472 166.632C345.984 166.056 346.48 165.584 346.96 165.216C347.44 164.848 348.12 164.392 349 163.848C350.376 162.984 351.28 162.336 351.712 161.904C352.608 161.024 353.056 160.048 353.056 158.976C353.056 158.032 352.752 157.264 352.144 156.672C351.536 156.064 350.744 155.76 349.768 155.76C348.6 155.76 347.76 156.168 347.248 156.984C346.752 157.784 346.488 158.8 346.456 160.032H344.392V159.576C344.392 157.896 344.888 156.544 345.88 155.52C346.888 154.496 348.216 153.984 349.864 153.984C351.48 153.984 352.768 154.432 353.728 155.328C354.688 156.224 355.168 157.424 355.168 158.928C355.168 159.568 355.056 160.176 354.832 160.752C354.624 161.312 354.384 161.784 354.112 162.168C353.856 162.552 353.456 162.96 352.912 163.392C352.384 163.824 351.944 164.16 351.592 164.4C351.24 164.624 350.736 164.936 350.08 165.336C348.768 166.12 347.896 166.728 347.464 167.16C346.856 167.752 346.464 168.416 346.288 169.152H355.024Z" fill="black"/>
<path d="M338.592 198.008V215H336.36V202.688H332.088V201.152C333.464 201.152 334.552 200.928 335.352 200.48C336.168 200.032 336.712 199.208 336.984 198.008H338.592ZM344.536 210.896H346.552C346.664 211.728 346.992 212.384 347.536 212.864C348.096 213.328 348.808 213.56 349.672 213.56C351.896 213.56 353.16 211.712 353.464 208.016C353.496 207.68 353.512 207.304 353.512 206.888C352.552 208.44 351.168 209.216 349.36 209.216C347.808 209.216 346.552 208.712 345.592 207.704C344.632 206.68 344.152 205.344 344.152 203.696C344.152 202 344.672 200.624 345.712 199.568C346.752 198.512 348.104 197.984 349.768 197.984C353.672 197.984 355.624 200.752 355.624 206.288C355.624 207.136 355.568 207.952 355.456 208.736C355.36 209.504 355.176 210.304 354.904 211.136C354.632 211.952 354.28 212.664 353.848 213.272C353.416 213.88 352.832 214.376 352.096 214.76C351.376 215.144 350.544 215.336 349.6 215.336C348.16 215.336 346.976 214.944 346.048 214.16C345.136 213.376 344.632 212.288 344.536 210.896ZM349.672 199.808C348.664 199.808 347.848 200.16 347.224 200.864C346.616 201.552 346.312 202.472 346.312 203.624C346.312 204.712 346.6 205.616 347.176 206.336C347.768 207.04 348.6 207.392 349.672 207.392C350.712 207.392 351.552 207.056 352.192 206.384C352.832 205.696 353.152 204.792 353.152 203.672C353.152 202.504 352.832 201.568 352.192 200.864C351.552 200.16 350.712 199.808 349.672 199.808Z" fill="black"/>
<path d="M341.688 257.152V259H330.6C330.648 258.056 330.792 257.232 331.032 256.528C331.272 255.824 331.64 255.192 332.136 254.632C332.648 254.056 333.144 253.584 333.624 253.216C334.104 252.848 334.784 252.392 335.664 251.848C337.04 250.984 337.944 250.336 338.376 249.904C339.272 249.024 339.72 248.048 339.72 246.976C339.72 246.032 339.416 245.264 338.808 244.672C338.2 244.064 337.408 243.76 336.432 243.76C335.264 243.76 334.424 244.168 333.912 244.984C333.416 245.784 333.152 246.8 333.12 248.032H331.056V247.576C331.056 245.896 331.552 244.544 332.544 243.52C333.552 242.496 334.88 241.984 336.528 241.984C338.144 241.984 339.432 242.432 340.392 243.328C341.352 244.224 341.832 245.424 341.832 246.928C341.832 247.568 341.72 248.176 341.496 248.752C341.288 249.312 341.048 249.784 340.776 250.168C340.52 250.552 340.12 250.96 339.576 251.392C339.048 251.824 338.608 252.16 338.256 252.4C337.904 252.624 337.4 252.936 336.744 253.336C335.432 254.12 334.56 254.728 334.128 255.16C333.52 255.752 333.128 256.416 332.952 257.152H341.688ZM355.336 246.4H353.248C353.136 245.584 352.832 244.944 352.336 244.48C351.856 244 351.2 243.76 350.368 243.76C349.792 243.76 349.272 243.864 348.808 244.072C348.36 244.28 347.992 244.584 347.704 244.984C347.432 245.368 347.2 245.76 347.008 246.16C346.816 246.56 346.672 247.048 346.576 247.624C346.48 248.2 346.416 248.672 346.384 249.04C346.352 249.392 346.32 249.824 346.288 250.336C347.216 248.848 348.624 248.104 350.512 248.104C352.096 248.104 353.368 248.608 354.328 249.616C355.304 250.608 355.792 251.92 355.792 253.552C355.792 255.232 355.28 256.616 354.256 257.704C353.248 258.792 351.896 259.336 350.2 259.336C346.248 259.336 344.272 256.52 344.272 250.888C344.272 250.008 344.32 249.176 344.416 248.392C344.528 247.608 344.72 246.816 344.992 246.016C345.28 245.2 345.648 244.504 346.096 243.928C346.544 243.352 347.136 242.888 347.872 242.536C348.624 242.168 349.48 241.984 350.44 241.984C351.864 241.984 353.008 242.376 353.872 243.16C354.736 243.928 355.224 245.008 355.336 246.4ZM350.152 249.88C349.112 249.88 348.272 250.232 347.632 250.936C346.992 251.624 346.672 252.528 346.672 253.648C346.672 254.816 346.992 255.752 347.632 256.456C348.288 257.16 349.144 257.512 350.2 257.512C351.224 257.512 352.048 257.176 352.672 256.504C353.312 255.816 353.632 254.896 353.632 253.744C353.632 252.56 353.32 251.624 352.696 250.936C352.072 250.232 351.224 249.88 350.152 249.88Z" fill="black"/>
<path d="M416.368 66.544C416.176 68.704 415.424 70.392 414.112 71.608C412.816 72.808 411.104 73.408 408.976 73.408C406.544 73.408 404.616 72.608 403.192 71.008C401.768 69.392 401.056 67.216 401.056 64.48C401.056 61.92 401.768 59.792 403.192 58.096C404.632 56.384 406.616 55.528 409.144 55.528C410.952 55.528 412.544 56.016 413.92 56.992C415.296 57.968 416.064 59.32 416.224 61.048H413.968C413.712 59.928 413.152 59.056 412.288 58.432C411.424 57.792 410.36 57.472 409.096 57.472C407.192 57.472 405.752 58.144 404.776 59.488C403.816 60.832 403.336 62.488 403.336 64.456C403.336 66.632 403.848 68.344 404.872 69.592C405.896 70.84 407.296 71.464 409.072 71.464C410.528 71.464 411.688 71.048 412.552 70.216C413.416 69.368 413.936 68.144 414.112 66.544H416.368ZM420.008 58.888C420.552 58.04 421.208 57.416 421.976 57.016C422.744 56.6 423.72 56.352 424.904 56.272C426.232 56.176 427.04 56.048 427.328 55.888C427.52 55.792 427.664 55.664 427.76 55.504H429.8C429.752 55.76 429.68 55.992 429.584 56.2C429.504 56.408 429.408 56.592 429.296 56.752C429.2 56.896 429.056 57.032 428.864 57.16C428.688 57.288 428.536 57.4 428.408 57.496C428.28 57.576 428.088 57.656 427.832 57.736C427.592 57.8 427.4 57.856 427.256 57.904C427.112 57.936 426.888 57.968 426.584 58C426.296 58.032 426.088 58.056 425.96 58.072C425.832 58.088 425.6 58.104 425.264 58.12C424.928 58.136 424.712 58.152 424.616 58.168C423.304 58.264 422.28 58.776 421.544 59.704C420.808 60.616 420.344 61.84 420.152 63.376H420.224C420.576 62.528 421.136 61.848 421.904 61.336C422.672 60.824 423.56 60.568 424.568 60.568C426.328 60.568 427.704 61.128 428.696 62.248C429.704 63.352 430.208 64.904 430.208 66.904C430.208 68.968 429.696 70.568 428.672 71.704C427.664 72.84 426.24 73.408 424.4 73.408C422.896 73.408 421.624 72.968 420.584 72.088C419.544 71.192 418.904 69.912 418.664 68.248C418.568 67.576 418.52 66.824 418.52 65.992C418.52 62.776 419.016 60.408 420.008 58.888ZM420.608 66.976C420.608 68.384 420.944 69.52 421.616 70.384C422.304 71.248 423.24 71.68 424.424 71.68C425.576 71.68 426.48 71.264 427.136 70.432C427.792 69.6 428.12 68.44 428.12 66.952C428.12 65.496 427.784 64.352 427.112 63.52C426.44 62.688 425.528 62.272 424.376 62.272C423.224 62.272 422.304 62.696 421.616 63.544C420.944 64.376 420.608 65.52 420.608 66.976Z" fill="black" fill-opacity="0.8"/>
<path d="M424 114.4H421.912C421.8 113.584 421.496 112.944 421 112.48C420.52 112 419.864 111.76 419.032 111.76C418.456 111.76 417.936 111.864 417.472 112.072C417.024 112.28 416.656 112.584 416.368 112.984C416.096 113.368 415.864 113.76 415.672 114.16C415.48 114.56 415.336 115.048 415.24 115.624C415.144 116.2 415.08 116.672 415.048 117.04C415.016 117.392 414.984 117.824 414.952 118.336C415.88 116.848 417.288 116.104 419.176 116.104C420.76 116.104 422.032 116.608 422.992 117.616C423.968 118.608 424.456 119.92 424.456 121.552C424.456 123.232 423.944 124.616 422.92 125.704C421.912 126.792 420.56 127.336 418.864 127.336C414.912 127.336 412.936 124.52 412.936 118.888C412.936 118.008 412.984 117.176 413.08 116.392C413.192 115.608 413.384 114.816 413.656 114.016C413.944 113.2 414.312 112.504 414.76 111.928C415.208 111.352 415.8 110.888 416.536 110.536C417.288 110.168 418.144 109.984 419.104 109.984C420.528 109.984 421.672 110.376 422.536 111.16C423.4 111.928 423.888 113.008 424 114.4ZM418.816 117.88C417.776 117.88 416.936 118.232 416.296 118.936C415.656 119.624 415.336 120.528 415.336 121.648C415.336 122.816 415.656 123.752 416.296 124.456C416.952 125.16 417.808 125.512 418.864 125.512C419.888 125.512 420.712 125.176 421.336 124.504C421.976 123.816 422.296 122.896 422.296 121.744C422.296 120.56 421.984 119.624 421.36 118.936C420.736 118.232 419.888 117.88 418.816 117.88Z" fill="black"/>
<path d="M412.592 154.008V171H410.36V158.688H406.088V157.152C407.464 157.152 408.552 156.928 409.352 156.48C410.168 156.032 410.712 155.208 410.984 154.008H412.592ZM418.44 159.504C418.488 157.744 418.976 156.384 419.904 155.424C420.848 154.464 422.16 153.984 423.84 153.984C425.344 153.984 426.552 154.392 427.464 155.208C428.376 156.024 428.832 157.096 428.832 158.424C428.832 159.224 428.624 159.944 428.208 160.584C427.808 161.208 427.24 161.672 426.504 161.976C427.464 162.2 428.224 162.68 428.784 163.416C429.344 164.152 429.624 165.04 429.624 166.08C429.64 167.648 429.096 168.92 427.992 169.896C426.904 170.856 425.488 171.336 423.744 171.336C422.016 171.336 420.632 170.864 419.592 169.92C418.568 168.96 418.056 167.672 418.056 166.056V165.744H420.072C420.12 166.96 420.464 167.896 421.104 168.552C421.744 169.208 422.632 169.536 423.768 169.536C424.856 169.536 425.736 169.232 426.408 168.624C427.096 168 427.44 167.2 427.44 166.224C427.44 165.232 427.096 164.44 426.408 163.848C425.736 163.256 424.824 162.96 423.672 162.96C423.384 162.96 423.016 162.992 422.568 163.056V161.328C422.792 161.344 423.024 161.352 423.264 161.352C424.32 161.352 425.152 161.104 425.76 160.608C426.384 160.096 426.696 159.408 426.696 158.544C426.696 157.712 426.424 157.04 425.88 156.528C425.352 156.016 424.64 155.76 423.744 155.76C422.72 155.76 421.92 156.088 421.344 156.744C420.768 157.384 420.464 158.304 420.432 159.504H418.44Z" fill="black"/>
<path d="M417.688 213.152V215H406.6C406.648 214.056 406.792 213.232 407.032 212.528C407.272 211.824 407.64 211.192 408.136 210.632C408.648 210.056 409.144 209.584 409.624 209.216C410.104 208.848 410.784 208.392 411.664 207.848C413.04 206.984 413.944 206.336 414.376 205.904C415.272 205.024 415.72 204.048 415.72 202.976C415.72 202.032 415.416 201.264 414.808 200.672C414.2 200.064 413.408 199.76 412.432 199.76C411.264 199.76 410.424 200.168 409.912 200.984C409.416 201.784 409.152 202.8 409.12 204.032H407.056V203.576C407.056 201.896 407.552 200.544 408.544 199.52C409.552 198.496 410.88 197.984 412.528 197.984C414.144 197.984 415.432 198.432 416.392 199.328C417.352 200.224 417.832 201.424 417.832 202.928C417.832 203.568 417.72 204.176 417.496 204.752C417.288 205.312 417.048 205.784 416.776 206.168C416.52 206.552 416.12 206.96 415.576 207.392C415.048 207.824 414.608 208.16 414.256 208.4C413.904 208.624 413.4 208.936 412.744 209.336C411.432 210.12 410.56 210.728 410.128 211.16C409.52 211.752 409.128 212.416 408.952 213.152H417.688ZM425.984 197.984C427.008 197.984 427.88 198.176 428.6 198.56C429.336 198.928 429.896 199.384 430.28 199.928C430.664 200.472 430.968 201.184 431.192 202.064C431.416 202.928 431.552 203.712 431.6 204.416C431.648 205.104 431.672 205.936 431.672 206.912C431.672 207.808 431.632 208.616 431.552 209.336C431.488 210.056 431.336 210.808 431.096 211.592C430.872 212.376 430.56 213.032 430.16 213.56C429.76 214.072 429.216 214.496 428.528 214.832C427.84 215.168 427.024 215.336 426.08 215.336C425.088 215.336 424.224 215.168 423.488 214.832C422.768 214.48 422.208 214.048 421.808 213.536C421.408 213.024 421.088 212.376 420.848 211.592C420.624 210.792 420.48 210.04 420.416 209.336C420.352 208.616 420.32 207.792 420.32 206.864C420.32 206.064 420.336 205.368 420.368 204.776C420.416 204.184 420.496 203.52 420.608 202.784C420.736 202.032 420.928 201.4 421.184 200.888C421.44 200.36 421.768 199.864 422.168 199.4C422.568 198.936 423.088 198.584 423.728 198.344C424.384 198.104 425.136 197.984 425.984 197.984ZM427.304 200.096C426.92 199.904 426.48 199.808 425.984 199.808C425.488 199.808 425.048 199.904 424.664 200.096C424.28 200.272 423.968 200.48 423.728 200.72C423.488 200.96 423.28 201.32 423.104 201.8C422.928 202.264 422.8 202.656 422.72 202.976C422.656 203.296 422.6 203.76 422.552 204.368C422.504 204.96 422.48 205.384 422.48 205.64C422.48 205.88 422.48 206.288 422.48 206.864C422.48 207.424 422.488 207.888 422.504 208.256C422.52 208.624 422.56 209.104 422.624 209.696C422.688 210.288 422.8 210.784 422.96 211.184C423.12 211.568 423.32 211.96 423.56 212.36C423.8 212.744 424.128 213.04 424.544 213.248C424.976 213.44 425.472 213.536 426.032 213.536C426.512 213.536 426.936 213.448 427.304 213.272C427.688 213.096 428 212.888 428.24 212.648C428.48 212.408 428.68 212.072 428.84 211.64C429.016 211.192 429.144 210.808 429.224 210.488C429.304 210.152 429.36 209.712 429.392 209.168C429.44 208.608 429.464 208.2 429.464 207.944C429.48 207.672 429.488 207.28 429.488 206.768C429.488 206.208 429.488 205.808 429.488 205.568C429.488 205.328 429.464 204.912 429.416 204.32C429.368 203.728 429.304 203.272 429.224 202.952C429.16 202.632 429.04 202.24 428.864 201.776C428.688 201.312 428.48 200.96 428.24 200.72C428 200.48 427.688 200.272 427.304 200.096Z" fill="black"/>
<path d="M417.688 257.152V259H406.6C406.648 258.056 406.792 257.232 407.032 256.528C407.272 255.824 407.64 255.192 408.136 254.632C408.648 254.056 409.144 253.584 409.624 253.216C410.104 252.848 410.784 252.392 411.664 251.848C413.04 250.984 413.944 250.336 414.376 249.904C415.272 249.024 415.72 248.048 415.72 246.976C415.72 246.032 415.416 245.264 414.808 244.672C414.2 244.064 413.408 243.76 412.432 243.76C411.264 243.76 410.424 244.168 409.912 244.984C409.416 245.784 409.152 246.8 409.12 248.032H407.056V247.576C407.056 245.896 407.552 244.544 408.544 243.52C409.552 242.496 410.88 241.984 412.528 241.984C414.144 241.984 415.432 242.432 416.392 243.328C417.352 244.224 417.832 245.424 417.832 246.928C417.832 247.568 417.72 248.176 417.496 248.752C417.288 249.312 417.048 249.784 416.776 250.168C416.52 250.552 416.12 250.96 415.576 251.392C415.048 251.824 414.608 252.16 414.256 252.4C413.904 252.624 413.4 252.936 412.744 253.336C411.432 254.12 410.56 254.728 410.128 255.16C409.52 255.752 409.128 256.416 408.952 257.152H417.688ZM431.432 242.296V244.048C427.72 248.288 425.552 253.272 424.928 259H422.672C422.864 256.376 423.552 253.776 424.736 251.2C425.936 248.624 427.472 246.304 429.344 244.24H420.44V242.296H431.432Z" fill="black"/>
<path d="M479.896 55.912H487.192C488.76 55.912 490.056 56.256 491.08 56.944C492.12 57.632 492.64 58.712 492.64 60.184C492.64 61.032 492.408 61.792 491.944 62.464C491.496 63.12 490.888 63.584 490.12 63.856C491.176 64.096 491.984 64.592 492.544 65.344C493.12 66.096 493.408 67.04 493.408 68.176C493.408 71.392 491.248 73 486.928 73H479.896V55.912ZM482.104 57.832V63.232H486.16C486.624 63.232 487.016 63.224 487.336 63.208C487.672 63.176 488.048 63.112 488.464 63.016C488.88 62.92 489.208 62.784 489.448 62.608C489.704 62.416 489.92 62.144 490.096 61.792C490.288 61.44 490.384 61.016 490.384 60.52C490.384 60.024 490.304 59.608 490.144 59.272C489.984 58.92 489.792 58.656 489.568 58.48C489.344 58.288 489.032 58.144 488.632 58.048C488.248 57.952 487.896 57.896 487.576 57.88C487.272 57.848 486.872 57.832 486.376 57.832H482.104ZM482.104 65.008V71.104H486.616C487.176 71.104 487.632 71.096 487.984 71.08C488.336 71.048 488.728 70.976 489.16 70.864C489.608 70.752 489.96 70.592 490.216 70.384C490.472 70.16 490.688 69.848 490.864 69.448C491.04 69.032 491.128 68.536 491.128 67.96C491.128 67.48 491.064 67.064 490.936 66.712C490.824 66.36 490.624 66.08 490.336 65.872C490.064 65.664 489.8 65.496 489.544 65.368C489.304 65.24 488.952 65.152 488.488 65.104C488.024 65.056 487.664 65.032 487.408 65.032C487.152 65.016 486.76 65.008 486.232 65.008H482.104ZM506.622 68.488C506.446 69.976 505.878 71.16 504.918 72.04C503.974 72.92 502.742 73.36 501.222 73.36C499.35 73.36 497.902 72.784 496.878 71.632C495.854 70.464 495.342 68.912 495.342 66.976C495.342 64.912 495.878 63.28 496.95 62.08C498.022 60.864 499.47 60.256 501.294 60.256C502.814 60.256 504.03 60.64 504.942 61.408C505.854 62.16 506.39 63.24 506.55 64.648H504.438C504.07 62.856 503.03 61.96 501.318 61.96C500.134 61.96 499.198 62.4 498.51 63.28C497.822 64.144 497.478 65.32 497.478 66.808C497.478 68.312 497.806 69.496 498.462 70.36C499.118 71.224 500.022 71.656 501.174 71.656C502.102 71.656 502.854 71.384 503.43 70.84C504.022 70.296 504.398 69.512 504.558 68.488H506.622Z" fill="black" fill-opacity="0.8"/>
<path d="M498.096 110.296V112.048C494.384 116.288 492.216 121.272 491.592 127H489.336C489.528 124.376 490.216 121.776 491.4 119.2C492.6 116.624 494.136 114.304 496.008 112.24H487.104V110.296H498.096Z" fill="black"/>
<path d="M487.592 154.008V171H485.36V158.688H481.088V157.152C482.464 157.152 483.552 156.928 484.352 156.48C485.168 156.032 485.712 155.208 485.984 154.008H487.592ZM504.696 165.168V166.896H502.392V171H500.472V166.896H493.008V164.976L500.736 153.984H502.392V165.168H504.696ZM500.472 165.168V156.984L494.808 165.168H500.472Z" fill="black"/>
<path d="M490.688 213.152V215H479.6C479.648 214.056 479.792 213.232 480.032 212.528C480.272 211.824 480.64 211.192 481.136 210.632C481.648 210.056 482.144 209.584 482.624 209.216C483.104 208.848 483.784 208.392 484.664 207.848C486.04 206.984 486.944 206.336 487.376 205.904C488.272 205.024 488.72 204.048 488.72 202.976C488.72 202.032 488.416 201.264 487.808 200.672C487.2 200.064 486.408 199.76 485.432 199.76C484.264 199.76 483.424 200.168 482.912 200.984C482.416 201.784 482.152 202.8 482.12 204.032H480.056V203.576C480.056 201.896 480.552 200.544 481.544 199.52C482.552 198.496 483.88 197.984 485.528 197.984C487.144 197.984 488.432 198.432 489.392 199.328C490.352 200.224 490.832 201.424 490.832 202.928C490.832 203.568 490.72 204.176 490.496 204.752C490.288 205.312 490.048 205.784 489.776 206.168C489.52 206.552 489.12 206.96 488.576 207.392C488.048 207.824 487.608 208.16 487.256 208.4C486.904 208.624 486.4 208.936 485.744 209.336C484.432 210.12 483.56 210.728 483.128 211.16C482.52 211.752 482.128 212.416 481.952 213.152H490.688ZM500.928 198.008V215H498.696V202.688H494.424V201.152C495.8 201.152 496.888 200.928 497.688 200.48C498.504 200.032 499.048 199.208 499.32 198.008H500.928Z" fill="black"/>
<path d="M490.688 257.152V259H479.6C479.648 258.056 479.792 257.232 480.032 256.528C480.272 255.824 480.64 255.192 481.136 254.632C481.648 254.056 482.144 253.584 482.624 253.216C483.104 252.848 483.784 252.392 484.664 251.848C486.04 250.984 486.944 250.336 487.376 249.904C488.272 249.024 488.72 248.048 488.72 246.976C488.72 246.032 488.416 245.264 487.808 244.672C487.2 244.064 486.408 243.76 485.432 243.76C484.264 243.76 483.424 244.168 482.912 244.984C482.416 245.784 482.152 246.8 482.12 248.032H480.056V247.576C480.056 245.896 480.552 244.544 481.544 243.52C482.552 242.496 483.88 241.984 485.528 241.984C487.144 241.984 488.432 242.432 489.392 243.328C490.352 244.224 490.832 245.424 490.832 246.928C490.832 247.568 490.72 248.176 490.496 248.752C490.288 249.312 490.048 249.784 489.776 250.168C489.52 250.552 489.12 250.96 488.576 251.392C488.048 251.824 487.608 252.16 487.256 252.4C486.904 252.624 486.4 252.936 485.744 253.336C484.432 254.12 483.56 254.728 483.128 255.16C482.52 255.752 482.128 256.416 481.952 257.152H490.688ZM496.296 249.904C495.544 249.584 494.96 249.12 494.544 248.512C494.144 247.888 493.944 247.16 493.944 246.328C493.944 245.048 494.416 244.008 495.36 243.208C496.304 242.392 497.52 241.984 499.008 241.984C500.48 241.984 501.68 242.384 502.608 243.184C503.552 243.968 504.024 244.984 504.024 246.232C504.024 247.96 503.248 249.184 501.696 249.904C503.696 250.608 504.696 251.992 504.696 254.056C504.696 255.672 504.176 256.96 503.136 257.92C502.096 258.864 500.696 259.336 498.936 259.336C497.24 259.336 495.872 258.872 494.832 257.944C493.808 257 493.296 255.752 493.296 254.2C493.296 253.176 493.552 252.296 494.064 251.56C494.592 250.808 495.336 250.256 496.296 249.904ZM501.144 244.528C500.616 244.048 499.904 243.808 499.008 243.808C498.112 243.808 497.392 244.056 496.848 244.552C496.304 245.032 496.032 245.672 496.032 246.472C496.032 247.272 496.304 247.92 496.848 248.416C497.392 248.896 498.112 249.136 499.008 249.136C499.888 249.136 500.592 248.896 501.12 248.416C501.664 247.92 501.936 247.272 501.936 246.472C501.936 245.656 501.672 245.008 501.144 244.528ZM498.936 250.792C497.912 250.792 497.072 251.112 496.416 251.752C495.76 252.376 495.432 253.176 495.432 254.152C495.432 255.16 495.76 255.992 496.416 256.648C497.088 257.288 497.944 257.608 498.984 257.608C500.04 257.608 500.896 257.288 501.552 256.648C502.224 256.008 502.56 255.184 502.56 254.176C502.56 253.168 502.224 252.352 501.552 251.728C500.88 251.104 500.008 250.792 498.936 250.792Z" fill="black"/>
<path d="M545.561 162.061C546.146 161.475 546.146 160.525 545.561 159.939L536.015 150.393C535.429 149.808 534.479 149.808 533.893 150.393C533.308 150.979 533.308 151.929 533.893 152.515L542.379 161L533.893 169.485C533.308 170.071 533.308 171.021 533.893 171.607C534.479 172.192 535.429 172.192 536.015 171.607L545.561 162.061ZM544 162.5H544.5V159.5H544V162.5Z" fill="black"/>
<path d="M0.93934 159.939C0.353553 160.525 0.353553 161.475 0.93934 162.061L10.4853 171.607C11.0711 172.192 12.0208 172.192 12.6066 171.607C13.1924 171.021 13.1924 170.071 12.6066 169.485L4.12132 161L12.6066 152.515C13.1924 151.929 13.1924 150.979 12.6066 150.393C12.0208 149.808 11.0711 149.808 10.4853 150.393L0.93934 159.939ZM2 162.5H2.5V159.5H2V162.5Z" fill="black"/>
<defs>
<filter id="filter0_d_256_4" x="78" y="217" width="86" height="78" filterUnits="userSpaceOnUse" color-interpolation-filters="sRGB">
<feFlood flood-opacity="0" result="BackgroundImageFix"/>
<feColorMatrix in="SourceAlpha" type="matrix" values="0 0 0 0 0 0 0 0 0 0 0 0 0 0 0 0 0 0 127 0" result="hardAlpha"/>
<feOffset dy="4"/>
<feGaussianBlur stdDeviation="11"/>
<feComposite in2="hardAlpha" operator="out"/>
<feColorMatrix type="matrix" values="0 0 0 0 0 0 0 0 0 0 0 0 0 0 0 0 0 0 0.1 0"/>
<feBlend mode="normal" in2="BackgroundImageFix" result="effect1_dropShadow_256_4"/>
<feBlend mode="normal" in="SourceGraphic" in2="effect1_dropShadow_256_4" result="shape"/>
</filter>
<filter id="filter1_d_256_4" x="166" y="246" width="49" height="49" filterUnits="userSpaceOnUse" color-interpolation-filters="sRGB">
<feFlood flood-opacity="0" result="BackgroundImageFix"/>
<feColorMatrix in="SourceAlpha" type="matrix" values="0 0 0 0 0 0 0 0 0 0 0 0 0 0 0 0 0 0 127 0" result="hardAlpha"/>
<feOffset dy="4"/>
<feGaussianBlur stdDeviation="11"/>
<feComposite in2="hardAlpha" operator="out"/>
<feColorMatrix type="matrix" values="0 0 0 0 0 0 0 0 0 0 0 0 0 0 0 0 0 0 0.1 0"/>
<feBlend mode="normal" in2="BackgroundImageFix" result="effect1_dropShadow_256_4"/>
<feBlend mode="normal" in="SourceGraphic" in2="effect1_dropShadow_256_4" result="shape"/>
</filter>
<filter id="filter2_d_256_4" x="175" y="246" width="49" height="49" filterUnits="userSpaceOnUse" color-interpolation-filters="sRGB">
<feFlood flood-opacity="0" result="BackgroundImageFix"/>
<feColorMatrix in="SourceAlpha" type="matrix" values="0 0 0 0 0 0 0 0 0 0 0 0 0 0 0 0 0 0 127 0" result="hardAlpha"/>
<feOffset dy="4"/>
<feGaussianBlur stdDeviation="11"/>
<feComposite in2="hardAlpha" operator="out"/>
<feColorMatrix type="matrix" values="0 0 0 0 0 0 0 0 0 0 0 0 0 0 0 0 0 0 0.1 0"/>
<feBlend mode="normal" in2="BackgroundImageFix" result="effect1_dropShadow_256_4"/>
<feBlend mode="normal" in="SourceGraphic" in2="effect1_dropShadow_256_4" result="shape"/>
</filter>
</defs>
</svg>
