<svg width="339" height="329" viewBox="0 0 339 329" fill="none" xmlns="http://www.w3.org/2000/svg">
<g clip-path="url(#clip0_81_93)">
<path d="M150.256 119.486C132.435 113.611 112.776 113.43 94.7108 118.376C78.8117 122.725 61.0915 131.183 52.5927 145.949C51.96 146.855 51.5364 147.414 51.0033 148.372C34.2529 178.363 31.5052 216.463 50.8066 245.89C60.2503 260.302 74.161 271.751 90.3048 277.868C106.749 284.109 124.546 283.729 141.093 278.063C175.114 266.434 206.473 232.098 206.185 194.798C205.927 160.774 182.316 130.058 150.256 119.486ZM128.305 123.808C131.669 124.085 135.02 124.553 138.334 125.233C149.218 127.471 159.329 132.072 168.019 138.481C167.739 138.999 167.561 139.635 167.537 140.371C167.135 152.552 161.289 163.231 154.369 172.956C147.422 182.73 139.515 191.823 130.907 200.189C129.254 197.438 127.777 194.59 126.489 191.674C117.348 170.891 117.284 145.877 127.78 125.57C128.103 124.973 128.264 124.38 128.305 123.808ZM67.6898 141.166C75.0669 134.638 84.873 130.325 93.8739 127.577C102.068 125.073 110.647 123.681 119.242 123.514C108.462 146.433 108.626 173.453 119.196 196.52C120.726 199.859 122.492 203.104 124.458 206.216C116.636 213.2 108.308 219.616 99.528 225.351C96.8923 222.007 94.4038 218.563 92.0773 215.02C77.6851 193.117 69.048 167.357 67.6898 141.166ZM54.3084 159.447C55.216 157.587 55.4069 157.188 56.2949 155.703C57.4336 153.808 58.5334 152.25 59.8936 150.659C62.7859 175.713 71.5661 199.684 85.5876 220.794C87.6637 223.921 89.8636 226.968 92.1588 229.92C91.8046 230.13 91.4571 230.349 91.1028 230.559C88.1942 232.254 85.1865 233.992 82.1002 235.593C80.5174 233.401 78.8648 231.255 77.1336 229.177C67.3233 217.409 52.3807 208.834 46.2365 194.371C46.1485 194.159 46.0448 193.96 45.9322 193.782C46.5121 181.997 49.397 170.251 54.3084 159.447ZM46.7964 211.031C54.1051 219.435 63.4851 226.306 70.6083 234.83C71.8036 236.258 72.9518 237.726 74.0617 239.214C69.0905 241.085 63.9273 242.242 58.5921 241.993C52.306 232.593 48.4573 222.003 46.7964 211.031ZM65.1505 250.374C69.9059 249.762 74.5352 248.339 79.0191 246.477C81.0962 249.796 82.9878 253.234 84.695 256.777C86.4456 260.434 87.6994 264.439 89.3949 268.144C80.2028 263.999 71.9219 257.84 65.1505 250.374ZM102.711 272.568C102.529 272.533 102.356 272.477 102.174 272.442C102 271.478 101.492 270.542 100.559 269.782C97.4647 267.275 96.5418 262.461 95.1066 258.93C93.6886 255.466 92.0894 252.064 90.3282 248.76C89.2494 246.736 88.0951 244.737 86.8936 242.778C89.1 241.623 91.2733 240.415 93.4105 239.196C94.8559 238.37 96.2888 237.514 97.7148 236.65C102.716 242.376 108.112 247.746 113.913 252.695C122.043 259.632 131.128 265.575 141.226 268.811C129.013 273.571 115.664 275.367 102.711 272.568ZM153.749 262.695C153.44 262.591 153.105 262.523 152.74 262.482C139.251 261.083 127.62 253.313 117.645 244.564C113.199 240.655 109.003 236.447 105.068 232C113.635 226.353 121.825 220.111 129.495 213.3C142.097 229.117 160.512 239.746 181.228 238.558C173.695 248.29 164.134 256.587 153.749 262.695ZM196.727 184.898C199.314 200.847 195.236 216.378 187.182 229.878C186.483 229.548 185.645 229.407 184.691 229.545C164.897 232.48 147.521 222.368 135.889 207.417C145.66 198.043 154.651 187.722 162.37 176.632C168.971 167.157 174.445 156.621 175.846 145.116C186.637 155.65 194.211 169.397 196.727 184.898Z" fill="black"/>
<path d="M220.892 13.9158C211.275 26.2789 202.561 39.3184 194.929 53.0031C191.283 59.5331 187.892 66.1994 184.715 72.9694C183.087 76.4438 181.524 79.9449 180.024 83.4727C178.977 85.9489 176.849 89.2917 178.542 92.0081C180.11 94.5164 182.612 95.6096 185.474 94.4649C185.588 94.4214 185.687 94.3769 185.8 94.3334C187.622 93.6083 188.784 91.4869 188.762 89.5387C199.169 64.5061 212.896 41.0969 229.54 19.6879C233.658 14.4008 224.994 8.64231 220.892 13.9158Z" fill="black"/>
<path d="M312.241 149.492C285.453 158.335 257.398 163.474 229.23 164.733C222.617 165.028 221.799 175.409 228.486 175.106C258.599 173.757 288.092 168.322 316.729 158.882C323.073 156.784 318.524 147.42 312.241 149.492Z" fill="black"/>
<path d="M236.655 89.6818C225.131 96.3638 214.145 103.859 203.762 112.207C198.536 116.405 205.353 124.258 210.572 120.067C220.235 112.301 230.404 105.294 241.129 99.0706C246.891 95.7296 242.448 86.3282 236.655 89.6818Z" fill="black"/>
</g>
<defs>
<clipPath id="clip0_81_93">
<rect width="287.708" height="185.496" fill="white" transform="translate(0 188.389) rotate(-40.9041)"/>
</clipPath>
</defs>
</svg>
