<svg width="233" height="180" viewBox="0 0 233 180" fill="none" xmlns="http://www.w3.org/2000/svg">
<g clip-path="url(#clip0_81_86)">
<path d="M202.013 176.356C209.807 175.068 220.59 173.389 224.855 165.699C227.401 161.105 226.14 155.956 224.924 151.186C223.453 145.416 221.923 139.668 220.359 133.92C217.231 122.431 213.943 110.986 210.486 99.5936C204.5 79.8781 197.361 60.8506 183.294 45.429C154.412 13.7845 111.64 3.60534 70.2809 2.98498C69.7808 2.73087 69.1848 2.58241 68.5004 2.56511C57.0486 2.2611 45.6163 2.77309 34.2455 4.09425C25.9797 5.05294 14.7799 5.38036 8.90559 12.2954C2.18348 20.204 7.35887 31.2321 10.43 39.5589C14.1379 49.6158 18.3624 59.4904 23.5922 68.848C34.0283 87.5203 48.7467 102.958 63.9752 117.717C78.8569 132.144 94.8237 145.712 112.647 156.333C130.446 166.944 150.034 174.42 170.635 176.942C181.048 178.207 191.656 178.059 202.013 176.356ZM216.993 153.906C217.539 156.053 218.594 158.908 217.783 161.138C217.029 163.195 214.706 164.318 212.839 165.08C204.668 168.404 194.91 169.289 186.125 169.388C197.129 161.573 206.43 151.534 213.309 139.874C214.563 144.536 215.808 149.214 216.993 153.906ZM15.1783 27.9201C13.6533 22.9208 12.9215 17.9345 18.4931 15.5215C22.9438 13.5874 28.286 13.2754 33.03 12.6551C40.0158 11.7408 47.0374 11.206 54.0638 10.9908C54.6355 11.3401 55.3551 11.5352 56.225 11.5091C57.4129 11.4696 58.6005 11.4386 59.7881 11.4075C51.8387 29.3053 43.0134 47.1618 28.5954 60.6563C23.0398 50.1855 18.5934 39.1007 15.1783 27.9201ZM32.7855 68.1091C32.9824 67.982 33.1717 67.8378 33.3618 67.6684C50.1427 52.4388 59.8825 31.8095 68.8891 11.3459C71.6202 11.3728 74.3664 11.4423 77.1028 11.5535C68.3387 35.7915 58.6833 60.6265 39.9255 78.8832C37.3994 75.4012 35.0108 71.8151 32.7855 68.1091ZM131.557 156.942C114.215 148.853 98.4335 137.468 84.0504 124.892C70.2418 112.817 56.7459 99.7536 45.0643 85.5478C45.1076 85.5075 45.1592 85.4674 45.2025 85.427C65.8242 65.5929 76.2411 38.5005 85.7812 12.0643C113.632 14.2113 140.987 21.5338 163.658 38.7914C178.003 49.71 188.586 64.0174 195.327 80.7523C198.239 87.9805 200.767 95.4129 203.067 102.929C202.366 103.567 201.872 104.481 201.761 105.662C201.054 113.141 196.744 119.787 192.606 125.843C189.043 131.054 185.058 135.956 180.668 140.498C172.444 149.005 163.029 156.107 152.691 161.745C151.15 161.603 149.44 162.194 148.42 163.551C142.666 161.705 137.026 159.492 131.557 156.942ZM188.188 144.705C195.329 136.98 203.093 127.598 207.247 117.307C208.24 120.916 209.215 124.525 210.174 128.133C210.059 128.305 209.953 128.478 209.862 128.676C202.038 144.771 189.84 158.106 174.366 167.013C173.572 167.471 173.032 168.064 172.698 168.724C168.695 168.288 164.718 167.643 160.78 166.814C170.898 160.807 180.184 153.372 188.188 144.705Z" fill="black"/>
<path d="M147.736 111.256C151.191 108.251 154.541 105.132 157.795 101.926C160.439 104.261 163.04 106.645 165.589 109.085C169.459 112.803 175.605 107.117 171.71 103.373C169.065 100.836 166.367 98.3566 163.617 95.942C165.62 93.7983 167.59 91.6198 169.511 89.3975C173.005 85.3515 167.356 79.1551 163.835 83.2421C161.695 85.7168 159.499 88.1389 157.254 90.5088C153.616 87.4978 149.899 84.5846 146.119 81.7783C147.243 80.106 148.358 78.4417 149.482 76.7693C152.491 72.2765 145.441 67.7841 142.441 72.2604C141.405 73.8101 140.37 75.3513 139.334 76.8925C134.774 73.7291 130.134 70.6972 125.396 67.8298C126.512 65.6864 127.596 63.5251 128.63 61.3451C130.934 56.5232 123.903 51.9727 121.589 56.8362C120.501 59.1235 119.364 61.3753 118.193 63.6174C113.668 61.0689 109.064 58.6519 104.387 56.3667C105.754 52.888 107.072 49.3823 108.333 45.8576C110.145 40.7567 102.177 38.247 100.374 43.323C99.243 46.508 98.0463 49.6737 96.8252 52.8216C94.2698 51.6751 91.6971 50.5447 89.1052 49.4808C84.1274 47.428 81.6454 55.4538 86.582 57.4882C88.9762 58.4775 91.3518 59.5164 93.7184 60.5718C92.6805 63.0711 91.6264 65.5529 90.5306 68.0332C88.3484 72.9689 96.3261 75.4538 98.4898 70.5678C99.4391 68.4266 100.364 66.2761 101.264 64.1163C105.645 66.2559 109.954 68.5274 114.201 70.9141C112.403 74.0656 110.54 77.1895 108.578 80.2592C105.666 84.8145 112.716 89.3153 115.619 84.768C117.643 81.6082 119.552 78.3936 121.403 75.1433C125.929 77.8851 130.357 80.7913 134.705 83.8122C132.571 87.0016 130.43 90.1906 128.297 93.3716C125.287 97.8644 132.337 102.357 135.338 97.8804L141.489 88.7065C144.854 91.2198 148.165 93.8068 151.407 96.4836C148.38 99.446 145.272 102.321 142.068 105.109C137.983 108.645 143.668 114.793 147.736 111.256Z" fill="black"/>
</g>
<defs>
<clipPath id="clip0_81_86">
<rect width="170.824" height="225.763" fill="white" transform="translate(232.014 8.69714) rotate(92.1508)"/>
</clipPath>
</defs>
</svg>
