<svg width="365" height="332" viewBox="0 0 365 332" fill="none" xmlns="http://www.w3.org/2000/svg">
<g clip-path="url(#clip0_88_107)">
<path d="M268.013 263.356C275.807 262.068 286.59 260.389 290.855 252.699C293.401 248.105 292.14 242.956 290.924 238.186C289.453 232.416 287.923 226.668 286.359 220.92C283.231 209.431 279.943 197.986 276.486 186.594C270.5 166.878 263.361 147.851 249.294 132.429C220.412 100.785 177.64 90.6053 136.281 89.985C135.781 89.7309 135.185 89.5824 134.5 89.5651C123.049 89.2611 111.616 89.7731 100.245 91.0942C91.9797 92.0529 80.7799 92.3804 74.9056 99.2954C68.1835 107.204 73.3589 118.232 76.43 126.559C80.1379 136.616 84.3624 146.49 89.5922 155.848C100.028 174.52 114.747 189.958 129.975 204.717C144.857 219.144 160.824 232.712 178.647 243.333C196.446 253.944 216.034 261.42 236.635 263.942C247.048 265.207 257.656 265.059 268.013 263.356ZM282.993 240.906C283.539 243.053 284.594 245.908 283.783 248.138C283.029 250.195 280.706 251.318 278.839 252.08C270.668 255.404 260.91 256.289 252.125 256.388C263.129 248.573 272.43 238.534 279.309 226.874C280.563 231.536 281.808 236.214 282.993 240.906ZM81.1783 114.92C79.6533 109.921 78.9215 104.935 84.4931 102.521C88.9438 100.587 94.286 100.275 99.03 99.6551C106.016 98.7408 113.037 98.206 120.064 97.9908C120.636 98.3401 121.355 98.5352 122.225 98.5091C123.413 98.4696 124.601 98.4386 125.788 98.4075C117.839 116.305 109.013 134.162 94.5954 147.656C89.0398 137.185 84.5934 126.101 81.1783 114.92ZM98.7855 155.109C98.9824 154.982 99.1717 154.838 99.3618 154.668C116.143 139.439 125.882 118.809 134.889 98.3459C137.62 98.3728 140.366 98.4423 143.103 98.5535C134.339 122.792 124.683 147.626 105.926 165.883C103.399 162.401 101.011 158.815 98.7855 155.109ZM197.557 243.942C180.215 235.853 164.434 224.468 150.05 211.892C136.242 199.817 122.746 186.754 111.064 172.548C111.108 172.507 111.159 172.467 111.202 172.427C131.824 152.593 142.241 125.5 151.781 99.0643C179.632 101.211 206.987 108.534 229.658 125.791C244.003 136.71 254.586 151.017 261.327 167.752C264.239 174.981 266.767 182.413 269.067 189.929C268.366 190.567 267.872 191.481 267.761 192.662C267.054 200.141 262.744 206.787 258.606 212.843C255.043 218.054 251.058 222.956 246.668 227.498C238.444 236.005 229.029 243.107 218.691 248.745C217.15 248.603 215.44 249.194 214.42 250.551C208.666 248.705 203.026 246.492 197.557 243.942ZM254.188 231.705C261.329 223.98 269.093 214.598 273.247 204.307C274.24 207.916 275.215 211.525 276.174 215.133C276.059 215.305 275.953 215.478 275.862 215.676C268.038 231.771 255.84 245.106 240.366 254.013C239.572 254.471 239.032 255.064 238.698 255.724C234.695 255.288 230.718 254.643 226.78 253.814C236.898 247.807 246.184 240.372 254.188 231.705Z" fill="black"/>
<path d="M213.736 198.256C217.191 195.251 220.541 192.132 223.795 188.926C226.439 191.261 229.04 193.645 231.589 196.085C235.459 199.803 241.605 194.117 237.71 190.373C235.065 187.836 232.367 185.357 229.617 182.942C231.62 180.798 233.59 178.62 235.511 176.397C239.005 172.351 233.356 166.155 229.835 170.242C227.695 172.717 225.499 175.139 223.254 177.509C219.616 174.498 215.899 171.585 212.119 168.778C213.243 167.106 214.358 165.442 215.482 163.769C218.491 159.277 211.441 154.784 208.441 159.26C207.405 160.81 206.37 162.351 205.334 163.892C200.774 160.729 196.134 157.697 191.396 154.83C192.512 152.686 193.596 150.525 194.63 148.345C196.934 143.523 189.903 138.973 187.589 143.836C186.501 146.123 185.364 148.375 184.193 150.617C179.668 148.069 175.064 145.652 170.387 143.367C171.754 139.888 173.072 136.382 174.333 132.858C176.145 127.757 168.177 125.247 166.374 130.323C165.243 133.508 164.046 136.674 162.825 139.822C160.27 138.675 157.697 137.545 155.105 136.481C150.127 134.428 147.645 142.454 152.582 144.488C154.976 145.477 157.352 146.516 159.718 147.572C158.68 150.071 157.626 152.553 156.531 155.033C154.348 159.969 162.326 162.454 164.49 157.568C165.439 155.427 166.364 153.276 167.264 151.116C171.645 153.256 175.954 155.527 180.201 157.914C178.403 161.066 176.54 164.189 174.578 167.259C171.666 171.814 178.716 176.315 181.619 171.768C183.643 168.608 185.552 165.394 187.403 162.143C191.929 164.885 196.357 167.791 200.705 170.812C198.571 174.002 196.43 177.191 194.297 180.372C191.287 184.864 198.337 189.357 201.338 184.88L207.489 175.706C210.854 178.22 214.165 180.807 217.407 183.484C214.38 186.446 211.272 189.321 208.068 192.109C203.983 195.645 209.668 201.793 213.736 198.256Z" fill="black"/>
</g>
<defs>
<clipPath id="clip0_88_107">
<rect width="170.824" height="225.763" fill="white" transform="translate(298.014 95.6971) rotate(92.1508)"/>
</clipPath>
</defs>
</svg>
