<svg width="87" height="80" viewBox="0 0 87 80" fill="none" xmlns="http://www.w3.org/2000/svg">
<g clip-path="url(#clip0_81_91)">
<path d="M86.4852 30.815C84.9692 21.8987 79.3839 14.587 72.1013 9.49715C58.2106 -0.210604 35.9347 -4.00803 20.985 5.48916C6.94919 12.3652 -1.69714 27.8235 0.283103 43.7103C2.64779 62.7046 17.9239 77.0884 36.6746 79.6224C54.2936 82.004 71.9852 73.0368 81.103 57.8471C85.9412 49.7876 88.0665 40.1161 86.4852 30.815ZM19.3021 14.9573C20.1363 14.9718 20.9995 14.6814 21.7756 13.9626C22.6243 13.1784 23.5165 12.4814 24.4522 11.8497C25.8449 11.1962 27.3174 10.6371 28.8551 10.2015C29.7981 9.9328 30.4582 9.40276 30.8717 8.75654C34.7161 7.5222 38.8942 7.10833 43.094 7.30437C37.3491 10.579 32.4747 14.8048 27.6583 19.793C24.162 23.4089 20.5135 26.473 15.2183 26.0083C13.6443 25.8704 12.1065 25.6453 10.5978 25.5509C12.6288 21.4267 15.5665 17.7745 19.3021 14.9573ZM76.9902 50.0853C71.4194 62.799 58.2686 72.1728 44.3489 72.7609C41.549 72.8771 38.7636 72.6738 36.0435 72.1728C42.0422 66.5965 46.2348 56.6491 52.2263 52.6701C54.8376 50.9348 57.7826 49.7658 60.8872 49.2866C64.7171 48.6912 68.5978 49.41 72.4422 49.0905C74.3209 48.9308 76.1705 48.5169 77.8679 47.8417C77.5995 48.5968 77.3094 49.3519 76.9902 50.0853ZM78.5715 37.8072C76.8161 43.87 67.2123 41.5465 62.6643 41.8297C57.6738 42.1419 52.7631 43.6522 48.5705 46.404C44.3199 49.1995 41.2008 53.0332 38.3066 57.1573C36.7326 59.4009 35.2746 61.7389 33.5337 63.8664C32.141 65.5654 29.3992 69.3628 26.9112 68.9127C26.621 68.8618 26.3381 68.84 26.0625 68.8473C18.1415 64.8902 11.7438 58.1158 8.89316 49.2793C7.13053 43.8192 6.92017 38.163 8.04448 32.8771C11.1926 31.9041 15.3706 33.5814 18.5768 33.2546C22.9289 32.8117 26.7081 30.5028 29.9432 27.671C33.4684 24.5924 36.3264 20.8458 39.9677 17.8834C43.5945 14.9355 47.7436 12.6121 52.103 10.9421C53.0895 10.5645 53.7423 9.91102 54.1268 9.14863C57.1225 9.99815 59.9805 11.08 62.5627 12.3289C68.7936 15.3494 74.466 19.8439 77.5125 26.2044C78.9705 29.2467 79.674 32.5649 79.7901 35.9412C79.2461 36.355 78.8109 36.9722 78.5715 37.8072Z" fill="black"/>
</g>
<defs>
<clipPath id="clip0_81_91">
<rect width="87" height="80" fill="white"/>
</clipPath>
</defs>
</svg>
