<svg width="135" height="161" viewBox="0 0 135 161" fill="none" xmlns="http://www.w3.org/2000/svg">
<g clip-path="url(#clip0_81_98)">
<path d="M127.015 55.5527C114.784 51.2833 102.094 49.2322 89.2102 49.4056C91.6624 40.058 94.1084 30.7023 96.5606 21.3546C97.3061 18.5093 93.8817 16.7122 91.622 17.5456C80.4458 21.6632 69.9479 27.3826 60.4139 34.5151C58.7889 25.3514 56.7921 16.2628 54.4003 7.26066C53.5837 4.18679 48.8519 2.58937 47.5435 6.35376C37.1958 36.0538 27.8254 66.0802 19.437 96.3973C16.8371 98.7636 14.3997 101.378 12.2046 104.185C11.2889 104.707 10.6851 105.606 10.425 106.587C7.28415 111.073 4.8009 116.004 3.3376 121.268C0.513017 131.406 5.96304 139.885 14.4931 144.994C23.52 150.396 33.47 148.491 40.7351 141.058C44.5009 137.209 47.1197 132.457 49.6271 127.726C51.8651 123.5 53.9039 119.029 53.5154 114.251C75.1036 93.0799 99.8844 75.4575 126.993 62.2339C129.577 60.9687 130.1 56.6328 127.015 55.5527ZM45.4441 119.846C38.2567 113.394 30.3191 107.362 21.0588 104.874C21.9514 103.925 22.8635 102.994 23.8338 102.114C32.5186 103.482 40.3379 107.782 46.078 114.56C46.16 114.652 46.2359 114.735 46.3188 114.819C46.42 116.571 46.0494 118.224 45.4441 119.846ZM37.0867 134.388C31.6513 141.011 24.1448 142.991 16.878 137.961C14.2257 136.127 11.6701 133.78 10.386 130.74C8.88004 127.187 9.94855 123.486 11.32 120.066C12.5724 116.944 14.1572 113.991 16.0146 111.22C26.2666 112.831 34.5806 119.629 42.1458 126.561C40.6545 129.301 39.0551 131.982 37.0867 134.388ZM49.7627 107.933C43.5887 101.535 35.793 97.1653 27.1306 95.3549C34.1733 70.1779 41.8856 45.1918 50.2759 20.4414C51.8548 27.4367 53.2018 34.489 54.3259 41.5848C54.7413 44.1892 57.9178 45.727 60.0624 43.958C68.5209 36.968 77.7787 31.2673 87.7419 26.909C85.49 35.5087 83.237 44.1157 80.9851 52.7154C80.3407 55.1797 82.9869 56.8957 85.0298 56.7715C95.4756 56.1514 105.908 57.166 115.994 59.7565C91.7732 72.5438 69.4376 88.751 49.7627 107.933Z" fill="black"/>
<path d="M47.0786 52.497C43.5466 61.9648 40.0085 71.4245 36.4765 80.8923C34.8507 85.2503 41.4539 88.0741 43.0807 83.7089C46.6127 74.2412 50.1508 64.7815 53.6828 55.3137C55.3157 50.9567 48.7125 48.1328 47.0786 52.497Z" fill="black"/>
<path d="M76.3744 60.8718C74.9463 59.8501 72.3719 59.7799 71.3392 61.5134C70.3806 63.1252 69.4149 64.7361 68.4572 66.3408C67.4905 67.9588 67.3749 70.2008 69.0809 71.4199C70.509 72.4416 73.0834 72.5118 74.1161 70.7783C75.0747 69.1665 76.0404 67.5556 76.9981 65.9509C77.9648 64.3329 78.0804 62.0909 76.3744 60.8718Z" fill="black"/>
</g>
<defs>
<clipPath id="clip0_81_98">
<rect width="116.741" height="146.18" fill="white" transform="translate(19.167) rotate(7.53436)"/>
</clipPath>
</defs>
</svg>
