<svg width="321" height="290" viewBox="0 0 321 290" fill="none" xmlns="http://www.w3.org/2000/svg">
<g clip-path="url(#clip0_88_161)">
<path d="M119.17 103.304C116.789 122.098 121.671 141.082 131.199 157.284C152.975 194.292 197.022 208.588 237.92 203.367C239.045 204.414 240.645 205.006 242.479 204.534C277.819 195.465 305.159 161.899 307.496 125.516C309.852 88.9504 288.16 52.7863 255.444 36.6712C221.396 19.9028 177.544 26.1746 148.928 50.8764C133.396 64.2802 121.784 82.7169 119.17 103.304ZM206.652 194.424C213.812 177.357 223.565 161.512 235.387 147.438C236.344 148.801 237.467 150.107 238.368 151.48C240.974 155.437 243.177 159.62 244.991 163.994C248.626 172.696 250.532 181.849 250.941 191.256C250.946 191.405 250.962 191.545 250.978 191.686C236.708 195.187 221.441 196.238 206.652 194.424ZM259.825 187.239C259.192 179.072 257.446 171.006 254.56 163.331C253.053 159.308 251.209 155.438 249.116 151.687C247.329 148.481 245.08 145.584 243.065 142.547C243.185 141.503 242.993 140.449 242.294 139.642C248.9 132.612 256.058 126.091 263.696 120.178C264.431 120.991 265.484 121.417 266.57 121.498C275.918 135.097 280.872 151.395 280.167 168.013C280.149 168.5 280.192 168.949 280.295 169.371C274.528 176.398 267.603 182.483 259.825 187.239ZM298.319 113.66C299.602 128.842 295.985 143.774 288.829 156.778C287.304 141.301 281.728 126.498 272.352 113.874C279.866 108.727 287.766 104.137 296.015 100.172C297.159 104.583 297.938 109.087 298.319 113.66ZM277.051 64.7051C283.974 72.5363 289.489 81.6235 293.21 91.4099C250.053 111.925 215.384 148.44 197.437 192.795C197.424 192.82 197.419 192.856 197.406 192.882C187.762 190.856 178.47 187.534 169.943 182.758C170.66 181.001 170.457 178.92 169.129 177.75C169.416 177.129 169.713 176.508 170.009 175.888C170.64 174.58 171.28 173.272 171.929 171.967C173.449 168.927 175.037 165.925 176.684 162.959C180.019 156.933 183.626 151.068 187.476 145.369C194.938 134.313 203.289 123.853 212.409 114.109C230.925 94.3214 252.765 77.5836 276.715 64.9131C276.827 64.8468 276.938 64.7805 277.051 64.7051ZM270.431 57.9908C228.705 80.7626 193.81 114.796 170.134 156.08C168.594 158.766 162.152 168.747 160.228 176.427C155.523 172.864 151.156 168.77 147.226 164.106C145.479 162.041 143.848 159.884 142.301 157.656C143.978 156.08 144.198 153.398 143.19 151.575C143.278 151.357 143.351 151.055 143.402 150.656C143.755 149.786 144.126 148.918 144.487 148.049C145.044 146.748 145.607 145.457 146.189 144.168C147.547 141.159 148.973 138.188 150.477 135.257C153.514 129.315 156.832 123.526 160.464 117.923C166.884 108.031 174.151 98.7006 182.121 90.0303C183.467 89.4943 184.55 88.3093 185.024 86.9401C202.668 68.5263 223.781 53.4889 246.96 42.8723C255.609 46.5402 263.533 51.7057 270.431 57.9908ZM234.552 38.7947C228.667 41.8324 222.934 45.1514 217.374 48.7275C213.246 43.7834 208.16 39.8677 202.447 37.1134C213.146 35.7526 224.064 36.2441 234.552 38.7947ZM186.91 40.4505C187.506 41.39 188.475 42.1271 189.864 42.4011C197.733 43.9567 204.546 47.9851 209.733 53.8645C199.005 61.4174 188.998 69.947 179.824 79.3133C170.581 72.4252 160.535 66.7553 149.854 62.4301C160.133 52.1592 173.026 44.6926 186.91 40.4505ZM143.386 69.7017C154.177 73.7941 164.259 79.2202 173.535 86.0116C161.662 99.2005 151.386 113.858 143.107 129.658C140.321 134.973 137.775 140.416 135.48 145.962C131.211 137.062 128.519 127.431 127.834 117.52C126.627 100.06 132.689 83.2987 143.386 69.7017Z" fill="black"/>
</g>
<path d="M14.0776 232.415C35.005 210.873 58.9538 192.201 84.9198 177.135C91.0165 173.599 86.6744 163.397 80.512 166.978C52.7538 183.087 27.5944 202.745 5.21588 225.763C0.261348 230.869 9.16808 237.467 14.0776 232.415Z" fill="black"/>
<path d="M107.784 258.747C115.37 246.763 122.047 234.277 127.734 221.282C130.599 214.745 120.295 210.691 117.434 217.217C112.14 229.308 105.994 240.932 98.9369 252.089C95.1441 258.082 103.969 264.766 107.784 258.747Z" fill="black"/>
<defs>
<clipPath id="clip0_88_161">
<rect width="189.844" height="176.531" fill="white" transform="translate(294.037 216.757) rotate(-171.427)"/>
</clipPath>
</defs>
</svg>
